  0
SECTION
  2
HEADER
  9
$ACADVER
  1
AC1009
  9
$EXTMAX
 10
0.0
 20
0.0
 30
0.0
  9
$EXTMIN
 10
0.0
 20
0.0
 30
0.0
  9
$DIMSCALE
 40
1.0
  9
$LUNITS
 70
2
  9
$LUPREC
 70
8
  0
ENDSEC
  0
SECTION
  2
TABLES
  0
TABLE
  2
LTYPE
 70
1
  0
LTYPE
2
CONTINUOUS
 70
64
  3
LineType for PolyLines
 72
65
 73
0
 40
0.0
  0
ENDTAB
  0
TABLE
  2
LAYER
 70
64
  0
LAYER
  2
LAYER1
 70
64
 62
7
  6
CONTINUOUS
  0
LAYER
  2
LAYER2
 70
64
 62
7
  6
CONTINUOUS
  0
LAYER
  2
LAYER3
 70
64
 62
7
  6
CONTINUOUS
  0
LAYER
  2
LAYER4
 70
64
 62
7
  6
CONTINUOUS
  0
LAYER
  2
LAYER5
 70
64
 62
7
  6
CONTINUOUS
  0
LAYER
  2
LAYER6
 70
64
 62
7
  6
CONTINUOUS
  0
LAYER
  2
LAYER7
 70
64
 62
7
  6
CONTINUOUS
  0
LAYER
  2
LAYER8
 70
64
 62
7
  6
CONTINUOUS
  0
LAYER
  2
LAYER60
 70
64
 62
7
  6
CONTINUOUS
  0
LAYER
  2
LAYER61
 70
64
 62
7
  6
CONTINUOUS
  0
LAYER
  2
LAYER62
 70
64
 62
7
  6
CONTINUOUS
  0
LAYER
  2
LAYER63
 70
64
 62
7
  6
CONTINUOUS
  0
ENDTAB
  0
ENDSEC
  0
SECTION
  2
BLOCKS
  0
BLOCK
  8
0
  2
NPN1
 70
0
  3
NPN1
 10
0.0
 20
0.0
 30
0.0
  0
POLYLINE
  8
LAYER1
 66
1
 70
0
 40
0.0
 41
0.0
  0
VERTEX
  8
LAYER1
 10
20.0
 20
20.0
 30
0.0
  0
VERTEX
  8
LAYER1
 10
70.0
 20
20.0
 30
0.0
  0
VERTEX
  8
LAYER1
 10
70.0
 20
95.0
 30
0.0
  0
VERTEX
  8
LAYER1
 10
20.0
 20
95.0
 30
0.0
  0
VERTEX
  8
LAYER1
 10
20.0
 20
20.0
 30
0.0
  0
SEQEND
  8
LAYER1
  0
POLYLINE
  8
LAYER2
 66
1
 70
0
 40
0.0
 41
0.0
  0
VERTEX
  8
LAYER2
 10
80.0
 20
0.0
 30
0.0
  0
VERTEX
  8
LAYER2
 10
90.0
 20
0.0
 30
0.0
  0
VERTEX
  8
LAYER2
 10
90.0
 20
115.0
 30
0.0
  0
VERTEX
  8
LAYER2
 10
80.0
 20
115.0
 30
0.0
  0
VERTEX
  8
LAYER2
 10
80.0
 20
0.0
 30
0.0
  0
SEQEND
  8
LAYER2
  0
POLYLINE
  8
LAYER2
 66
1
 70
0
 40
0.0
 41
0.0
  0
VERTEX
  8
LAYER2
 10
10.0
 20
0.0
 30
0.0
  0
VERTEX
  8
LAYER2
 10
80.0
 20
0.0
 30
0.0
  0
VERTEX
  8
LAYER2
 10
80.0
 20
10.0
 30
0.0
  0
VERTEX
  8
LAYER2
 10
10.0
 20
10.0
 30
0.0
  0
VERTEX
  8
LAYER2
 10
10.0
 20
0.0
 30
0.0
  0
SEQEND
  8
LAYER2
  0
POLYLINE
  8
LAYER2
 66
1
 70
0
 40
0.0
 41
0.0
  0
VERTEX
  8
LAYER2
 10
0.0
 20
0.0
 30
0.0
  0
VERTEX
  8
LAYER2
 10
10.0
 20
0.0
 30
0.0
  0
VERTEX
  8
LAYER2
 10
10.0
 20
115.0
 30
0.0
  0
VERTEX
  8
LAYER2
 10
0.0
 20
115.0
 30
0.0
  0
VERTEX
  8
LAYER2
 10
0.0
 20
0.0
 30
0.0
  0
SEQEND
  8
LAYER2
  0
POLYLINE
  8
LAYER2
 66
1
 70
0
 40
0.0
 41
0.0
  0
VERTEX
  8
LAYER2
 10
10.0
 20
105.0
 30
0.0
  0
VERTEX
  8
LAYER2
 10
80.0
 20
105.0
 30
0.0
  0
VERTEX
  8
LAYER2
 10
80.0
 20
115.0
 30
0.0
  0
VERTEX
  8
LAYER2
 10
10.0
 20
115.0
 30
0.0
  0
VERTEX
  8
LAYER2
 10
10.0
 20
105.0
 30
0.0
  0
SEQEND
  8
LAYER2
  0
POLYLINE
  8
LAYER3
 66
1
 70
0
 40
0.0
 41
0.0
  0
VERTEX
  8
LAYER3
 10
34.0
 20
84.0
 30
0.0
  0
VERTEX
  8
LAYER3
 10
56.0
 20
84.0
 30
0.0
  0
VERTEX
  8
LAYER3
 10
56.0
 20
91.0
 30
0.0
  0
VERTEX
  8
LAYER3
 10
34.0
 20
91.0
 30
0.0
  0
VERTEX
  8
LAYER3
 10
34.0
 20
84.0
 30
0.0
  0
SEQEND
  8
LAYER3
  0
POLYLINE
  8
LAYER6
 66
1
 70
0
 40
0.0
 41
0.0
  0
VERTEX
  8
LAYER6
 10
37.0
 20
35.0
 30
0.0
  0
VERTEX
  8
LAYER6
 10
53.0
 20
35.0
 30
0.0
  0
VERTEX
  8
LAYER6
 10
53.0
 20
51.0
 30
0.0
  0
VERTEX
  8
LAYER6
 10
37.0
 20
51.0
 30
0.0
  0
VERTEX
  8
LAYER6
 10
37.0
 20
35.0
 30
0.0
  0
SEQEND
  8
LAYER6
  0
POLYLINE
  8
LAYER6
 66
1
 70
0
 40
0.0
 41
0.0
  0
VERTEX
  8
LAYER6
 10
30.0
 20
80.0
 30
0.0
  0
VERTEX
  8
LAYER6
 10
60.0
 20
80.0
 30
0.0
  0
VERTEX
  8
LAYER6
 10
60.0
 20
95.0
 30
0.0
  0
VERTEX
  8
LAYER6
 10
30.0
 20
95.0
 30
0.0
  0
VERTEX
  8
LAYER6
 10
30.0
 20
80.0
 30
0.0
  0
SEQEND
  8
LAYER6
  0
POLYLINE
  8
LAYER7
 66
1
 70
0
 40
0.0
 41
0.0
  0
VERTEX
  8
LAYER7
 10
40.0
 20
38.0
 30
0.0
  0
VERTEX
  8
LAYER7
 10
50.0
 20
38.0
 30
0.0
  0
VERTEX
  8
LAYER7
 10
50.0
 20
48.0
 30
0.0
  0
VERTEX
  8
LAYER7
 10
40.0
 20
48.0
 30
0.0
  0
VERTEX
  8
LAYER7
 10
40.0
 20
38.0
 30
0.0
  0
SEQEND
  8
LAYER7
  0
POLYLINE
  8
LAYER7
 66
1
 70
0
 40
0.0
 41
0.0
  0
VERTEX
  8
LAYER7
 10
40.0
 20
60.0
 30
0.0
  0
VERTEX
  8
LAYER7
 10
50.0
 20
60.0
 30
0.0
  0
VERTEX
  8
LAYER7
 10
50.0
 20
65.0
 30
0.0
  0
VERTEX
  8
LAYER7
 10
40.0
 20
65.0
 30
0.0
  0
VERTEX
  8
LAYER7
 10
40.0
 20
60.0
 30
0.0
  0
SEQEND
  8
LAYER7
  0
POLYLINE
  8
LAYER7
 66
1
 70
0
 40
0.0
 41
0.0
  0
VERTEX
  8
LAYER7
 10
35.0
 20
85.0
 30
0.0
  0
VERTEX
  8
LAYER7
 10
55.0
 20
85.0
 30
0.0
  0
VERTEX
  8
LAYER7
 10
55.0
 20
90.0
 30
0.0
  0
VERTEX
  8
LAYER7
 10
35.0
 20
90.0
 30
0.0
  0
VERTEX
  8
LAYER7
 10
35.0
 20
85.0
 30
0.0
  0
SEQEND
  8
LAYER7
  0
POLYLINE
  8
LAYER8
 66
1
 70
0
 40
0.0
 41
0.0
  0
VERTEX
  8
LAYER8
 10
38.0
 20
36.0
 30
0.0
  0
VERTEX
  8
LAYER8
 10
52.0
 20
36.0
 30
0.0
  0
VERTEX
  8
LAYER8
 10
52.0
 20
50.0
 30
0.0
  0
VERTEX
  8
LAYER8
 10
38.0
 20
50.0
 30
0.0
  0
VERTEX
  8
LAYER8
 10
38.0
 20
36.0
 30
0.0
  0
SEQEND
  8
LAYER8
  0
POLYLINE
  8
LAYER8
 66
1
 70
0
 40
0.0
 41
0.0
  0
VERTEX
  8
LAYER8
 10
38.0
 20
58.0
 30
0.0
  0
VERTEX
  8
LAYER8
 10
52.0
 20
58.0
 30
0.0
  0
VERTEX
  8
LAYER8
 10
52.0
 20
67.0
 30
0.0
  0
VERTEX
  8
LAYER8
 10
38.0
 20
67.0
 30
0.0
  0
VERTEX
  8
LAYER8
 10
38.0
 20
58.0
 30
0.0
  0
SEQEND
  8
LAYER8
  0
POLYLINE
  8
LAYER8
 66
1
 70
0
 40
0.0
 41
0.0
  0
VERTEX
  8
LAYER8
 10
33.0
 20
83.0
 30
0.0
  0
VERTEX
  8
LAYER8
 10
57.0
 20
83.0
 30
0.0
  0
VERTEX
  8
LAYER8
 10
57.0
 20
92.0
 30
0.0
  0
VERTEX
  8
LAYER8
 10
33.0
 20
92.0
 30
0.0
  0
VERTEX
  8
LAYER8
 10
33.0
 20
83.0
 30
0.0
  0
SEQEND
  8
LAYER8
  0
POLYLINE
  8
LAYER4
 66
1
 70
0
 40
0.0
 41
0.0
  0
VERTEX
  8
LAYER4
 10
35.0
 20
70.0
 30
0.0
  0
VERTEX
  8
LAYER4
 10
55.0
 20
70.0
 30
0.0
  0
VERTEX
  8
LAYER4
 10
60.0
 20
65.0
 30
0.0
  0
VERTEX
  8
LAYER4
 10
60.0
 20
35.0
 30
0.0
  0
VERTEX
  8
LAYER4
 10
55.0
 20
30.0
 30
0.0
  0
VERTEX
  8
LAYER4
 10
35.0
 20
30.0
 30
0.0
  0
VERTEX
  8
LAYER4
 10
30.0
 20
35.0
 30
0.0
  0
VERTEX
  8
LAYER4
 10
30.0
 20
65.0
 30
0.0
  0
VERTEX
  8
LAYER4
 10
35.0
 20
70.0
 30
0.0
  0
SEQEND
  8
LAYER4
  0
TEXT
  8
LAYER61
 10
45.0
 20
87.0
 30
0.0
 40
3.0
  1
1C
 50
0.0
  0
TEXT
  8
LAYER61
 10
45.0
 20
62.0
 30
0.0
 40
3.0
  1
2B
 50
0.0
  0
TEXT
  8
LAYER61
 10
45.0
 20
43.0
 30
0.0
 40
3.0
  1
3E
 50
0.0
  0
ENDBLK
  8
0
  0
BLOCK
  8
0
  2
NPN1NI
 70
0
  3
NPN1NI
 10
0.0
 20
0.0
 30
0.0
  0
POLYLINE
  8
LAYER7
 66
1
 70
0
 40
0.0
 41
0.0
  0
VERTEX
  8
LAYER7
 10
40.0
 20
38.0
 30
0.0
  0
VERTEX
  8
LAYER7
 10
50.0
 20
38.0
 30
0.0
  0
VERTEX
  8
LAYER7
 10
50.0
 20
48.0
 30
0.0
  0
VERTEX
  8
LAYER7
 10
40.0
 20
48.0
 30
0.0
  0
VERTEX
  8
LAYER7
 10
40.0
 20
38.0
 30
0.0
  0
SEQEND
  8
LAYER7
  0
POLYLINE
  8
LAYER7
 66
1
 70
0
 40
0.0
 41
0.0
  0
VERTEX
  8
LAYER7
 10
40.0
 20
60.0
 30
0.0
  0
VERTEX
  8
LAYER7
 10
50.0
 20
60.0
 30
0.0
  0
VERTEX
  8
LAYER7
 10
50.0
 20
65.0
 30
0.0
  0
VERTEX
  8
LAYER7
 10
40.0
 20
65.0
 30
0.0
  0
VERTEX
  8
LAYER7
 10
40.0
 20
60.0
 30
0.0
  0
SEQEND
  8
LAYER7
  0
POLYLINE
  8
LAYER8
 66
1
 70
0
 40
0.0
 41
0.0
  0
VERTEX
  8
LAYER8
 10
38.0
 20
36.0
 30
0.0
  0
VERTEX
  8
LAYER8
 10
52.0
 20
36.0
 30
0.0
  0
VERTEX
  8
LAYER8
 10
52.0
 20
50.0
 30
0.0
  0
VERTEX
  8
LAYER8
 10
38.0
 20
50.0
 30
0.0
  0
VERTEX
  8
LAYER8
 10
38.0
 20
36.0
 30
0.0
  0
SEQEND
  8
LAYER8
  0
POLYLINE
  8
LAYER8
 66
1
 70
0
 40
0.0
 41
0.0
  0
VERTEX
  8
LAYER8
 10
38.0
 20
58.0
 30
0.0
  0
VERTEX
  8
LAYER8
 10
52.0
 20
58.0
 30
0.0
  0
VERTEX
  8
LAYER8
 10
52.0
 20
67.0
 30
0.0
  0
VERTEX
  8
LAYER8
 10
38.0
 20
67.0
 30
0.0
  0
VERTEX
  8
LAYER8
 10
38.0
 20
58.0
 30
0.0
  0
SEQEND
  8
LAYER8
  0
POLYLINE
  8
LAYER6
 66
1
 70
0
 40
0.0
 41
0.0
  0
VERTEX
  8
LAYER6
 10
37.0
 20
35.0
 30
0.0
  0
VERTEX
  8
LAYER6
 10
53.0
 20
35.0
 30
0.0
  0
VERTEX
  8
LAYER6
 10
53.0
 20
51.0
 30
0.0
  0
VERTEX
  8
LAYER6
 10
37.0
 20
51.0
 30
0.0
  0
VERTEX
  8
LAYER6
 10
37.0
 20
35.0
 30
0.0
  0
SEQEND
  8
LAYER6
  0
POLYLINE
  8
LAYER6
 66
1
 70
0
 40
0.0
 41
0.0
  0
VERTEX
  8
LAYER6
 10
40.0
 20
60.0
 30
0.0
  0
VERTEX
  8
LAYER6
 10
50.0
 20
60.0
 30
0.0
  0
VERTEX
  8
LAYER6
 10
50.0
 20
65.0
 30
0.0
  0
VERTEX
  8
LAYER6
 10
40.0
 20
65.0
 30
0.0
  0
VERTEX
  8
LAYER6
 10
40.0
 20
60.0
 30
0.0
  0
SEQEND
  8
LAYER6
  0
POLYLINE
  8
LAYER4
 66
1
 70
0
 40
0.0
 41
0.0
  0
VERTEX
  8
LAYER4
 10
35.0
 20
70.0
 30
0.0
  0
VERTEX
  8
LAYER4
 10
55.0
 20
70.0
 30
0.0
  0
VERTEX
  8
LAYER4
 10
60.0
 20
65.0
 30
0.0
  0
VERTEX
  8
LAYER4
 10
60.0
 20
35.0
 30
0.0
  0
VERTEX
  8
LAYER4
 10
55.0
 20
30.0
 30
0.0
  0
VERTEX
  8
LAYER4
 10
35.0
 20
30.0
 30
0.0
  0
VERTEX
  8
LAYER4
 10
30.0
 20
35.0
 30
0.0
  0
VERTEX
  8
LAYER4
 10
30.0
 20
65.0
 30
0.0
  0
VERTEX
  8
LAYER4
 10
35.0
 20
70.0
 30
0.0
  0
SEQEND
  8
LAYER4
  0
TEXT
  8
LAYER61
 10
45.0
 20
60.0
 30
0.0
 40
3.0
  1
2B
 50
0.0
  0
TEXT
  8
LAYER61
 10
45.0
 20
40.0
 30
0.0
 40
3.0
  1
3E
 50
0.0
  0
TEXT
  8
LAYER61
 10
45.0
 20
85.0
 30
0.0
 40
3.0
  1
1C
 50
0.0
  0
ENDBLK
  8
0
  0
BLOCK
  8
0
  2
NPN2
 70
0
  3
NPN2
 10
0.0
 20
0.0
 30
0.0
  0
POLYLINE
  8
LAYER1
 66
1
 70
0
 40
0.0
 41
0.0
  0
VERTEX
  8
LAYER1
 10
20.0
 20
20.0
 30
0.0
  0
VERTEX
  8
LAYER1
 10
130.0
 20
20.0
 30
0.0
  0
VERTEX
  8
LAYER1
 10
130.0
 20
95.0
 30
0.0
  0
VERTEX
  8
LAYER1
 10
20.0
 20
95.0
 30
0.0
  0
VERTEX
  8
LAYER1
 10
20.0
 20
20.0
 30
0.0
  0
SEQEND
  8
LAYER1
  0
POLYLINE
  8
LAYER2
 66
1
 70
0
 40
0.0
 41
0.0
  0
VERTEX
  8
LAYER2
 10
140.0
 20
0.0
 30
0.0
  0
VERTEX
  8
LAYER2
 10
150.0
 20
0.0
 30
0.0
  0
VERTEX
  8
LAYER2
 10
150.0
 20
115.0
 30
0.0
  0
VERTEX
  8
LAYER2
 10
140.0
 20
115.0
 30
0.0
  0
VERTEX
  8
LAYER2
 10
140.0
 20
0.0
 30
0.0
  0
SEQEND
  8
LAYER2
  0
POLYLINE
  8
LAYER2
 66
1
 70
0
 40
0.0
 41
0.0
  0
VERTEX
  8
LAYER2
 10
10.0
 20
0.0
 30
0.0
  0
VERTEX
  8
LAYER2
 10
140.0
 20
0.0
 30
0.0
  0
VERTEX
  8
LAYER2
 10
140.0
 20
10.0
 30
0.0
  0
VERTEX
  8
LAYER2
 10
10.0
 20
10.0
 30
0.0
  0
VERTEX
  8
LAYER2
 10
10.0
 20
0.0
 30
0.0
  0
SEQEND
  8
LAYER2
  0
POLYLINE
  8
LAYER2
 66
1
 70
0
 40
0.0
 41
0.0
  0
VERTEX
  8
LAYER2
 10
0.0
 20
0.0
 30
0.0
  0
VERTEX
  8
LAYER2
 10
10.0
 20
0.0
 30
0.0
  0
VERTEX
  8
LAYER2
 10
10.0
 20
115.0
 30
0.0
  0
VERTEX
  8
LAYER2
 10
0.0
 20
115.0
 30
0.0
  0
VERTEX
  8
LAYER2
 10
0.0
 20
0.0
 30
0.0
  0
SEQEND
  8
LAYER2
  0
POLYLINE
  8
LAYER2
 66
1
 70
0
 40
0.0
 41
0.0
  0
VERTEX
  8
LAYER2
 10
10.0
 20
105.0
 30
0.0
  0
VERTEX
  8
LAYER2
 10
140.0
 20
105.0
 30
0.0
  0
VERTEX
  8
LAYER2
 10
140.0
 20
115.0
 30
0.0
  0
VERTEX
  8
LAYER2
 10
10.0
 20
115.0
 30
0.0
  0
VERTEX
  8
LAYER2
 10
10.0
 20
105.0
 30
0.0
  0
SEQEND
  8
LAYER2
  0
POLYLINE
  8
LAYER3
 66
1
 70
0
 40
0.0
 41
0.0
  0
VERTEX
  8
LAYER3
 10
34.0
 20
84.0
 30
0.0
  0
VERTEX
  8
LAYER3
 10
116.0
 20
84.0
 30
0.0
  0
VERTEX
  8
LAYER3
 10
116.0
 20
91.0
 30
0.0
  0
VERTEX
  8
LAYER3
 10
34.0
 20
91.0
 30
0.0
  0
VERTEX
  8
LAYER3
 10
34.0
 20
84.0
 30
0.0
  0
SEQEND
  8
LAYER3
  0
POLYLINE
  8
LAYER6
 66
1
 70
0
 40
0.0
 41
0.0
  0
VERTEX
  8
LAYER6
 10
37.0
 20
35.0
 30
0.0
  0
VERTEX
  8
LAYER6
 10
113.0
 20
35.0
 30
0.0
  0
VERTEX
  8
LAYER6
 10
113.0
 20
51.0
 30
0.0
  0
VERTEX
  8
LAYER6
 10
37.0
 20
51.0
 30
0.0
  0
VERTEX
  8
LAYER6
 10
37.0
 20
35.0
 30
0.0
  0
SEQEND
  8
LAYER6
  0
POLYLINE
  8
LAYER6
 66
1
 70
0
 40
0.0
 41
0.0
  0
VERTEX
  8
LAYER6
 10
30.0
 20
80.0
 30
0.0
  0
VERTEX
  8
LAYER6
 10
120.0
 20
80.0
 30
0.0
  0
VERTEX
  8
LAYER6
 10
120.0
 20
95.0
 30
0.0
  0
VERTEX
  8
LAYER6
 10
30.0
 20
95.0
 30
0.0
  0
VERTEX
  8
LAYER6
 10
30.0
 20
80.0
 30
0.0
  0
SEQEND
  8
LAYER6
  0
POLYLINE
  8
LAYER7
 66
1
 70
0
 40
0.0
 41
0.0
  0
VERTEX
  8
LAYER7
 10
40.0
 20
38.0
 30
0.0
  0
VERTEX
  8
LAYER7
 10
110.0
 20
38.0
 30
0.0
  0
VERTEX
  8
LAYER7
 10
110.0
 20
48.0
 30
0.0
  0
VERTEX
  8
LAYER7
 10
40.0
 20
48.0
 30
0.0
  0
VERTEX
  8
LAYER7
 10
40.0
 20
38.0
 30
0.0
  0
SEQEND
  8
LAYER7
  0
POLYLINE
  8
LAYER7
 66
1
 70
0
 40
0.0
 41
0.0
  0
VERTEX
  8
LAYER7
 10
40.0
 20
60.0
 30
0.0
  0
VERTEX
  8
LAYER7
 10
110.0
 20
60.0
 30
0.0
  0
VERTEX
  8
LAYER7
 10
110.0
 20
65.0
 30
0.0
  0
VERTEX
  8
LAYER7
 10
40.0
 20
65.0
 30
0.0
  0
VERTEX
  8
LAYER7
 10
40.0
 20
60.0
 30
0.0
  0
SEQEND
  8
LAYER7
  0
POLYLINE
  8
LAYER7
 66
1
 70
0
 40
0.0
 41
0.0
  0
VERTEX
  8
LAYER7
 10
35.0
 20
85.0
 30
0.0
  0
VERTEX
  8
LAYER7
 10
115.0
 20
85.0
 30
0.0
  0
VERTEX
  8
LAYER7
 10
115.0
 20
90.0
 30
0.0
  0
VERTEX
  8
LAYER7
 10
35.0
 20
90.0
 30
0.0
  0
VERTEX
  8
LAYER7
 10
35.0
 20
85.0
 30
0.0
  0
SEQEND
  8
LAYER7
  0
POLYLINE
  8
LAYER8
 66
1
 70
0
 40
0.0
 41
0.0
  0
VERTEX
  8
LAYER8
 10
38.0
 20
36.0
 30
0.0
  0
VERTEX
  8
LAYER8
 10
112.0
 20
36.0
 30
0.0
  0
VERTEX
  8
LAYER8
 10
112.0
 20
50.0
 30
0.0
  0
VERTEX
  8
LAYER8
 10
38.0
 20
50.0
 30
0.0
  0
VERTEX
  8
LAYER8
 10
38.0
 20
36.0
 30
0.0
  0
SEQEND
  8
LAYER8
  0
POLYLINE
  8
LAYER8
 66
1
 70
0
 40
0.0
 41
0.0
  0
VERTEX
  8
LAYER8
 10
38.0
 20
58.0
 30
0.0
  0
VERTEX
  8
LAYER8
 10
112.0
 20
58.0
 30
0.0
  0
VERTEX
  8
LAYER8
 10
112.0
 20
67.0
 30
0.0
  0
VERTEX
  8
LAYER8
 10
38.0
 20
67.0
 30
0.0
  0
VERTEX
  8
LAYER8
 10
38.0
 20
58.0
 30
0.0
  0
SEQEND
  8
LAYER8
  0
POLYLINE
  8
LAYER8
 66
1
 70
0
 40
0.0
 41
0.0
  0
VERTEX
  8
LAYER8
 10
33.0
 20
83.0
 30
0.0
  0
VERTEX
  8
LAYER8
 10
117.0
 20
83.0
 30
0.0
  0
VERTEX
  8
LAYER8
 10
117.0
 20
92.0
 30
0.0
  0
VERTEX
  8
LAYER8
 10
33.0
 20
92.0
 30
0.0
  0
VERTEX
  8
LAYER8
 10
33.0
 20
83.0
 30
0.0
  0
SEQEND
  8
LAYER8
  0
POLYLINE
  8
LAYER4
 66
1
 70
0
 40
0.0
 41
0.0
  0
VERTEX
  8
LAYER4
 10
35.0
 20
70.0
 30
0.0
  0
VERTEX
  8
LAYER4
 10
115.0
 20
70.0
 30
0.0
  0
VERTEX
  8
LAYER4
 10
120.0
 20
65.0
 30
0.0
  0
VERTEX
  8
LAYER4
 10
120.0
 20
35.0
 30
0.0
  0
VERTEX
  8
LAYER4
 10
115.0
 20
30.0
 30
0.0
  0
VERTEX
  8
LAYER4
 10
35.0
 20
30.0
 30
0.0
  0
VERTEX
  8
LAYER4
 10
30.0
 20
35.0
 30
0.0
  0
VERTEX
  8
LAYER4
 10
30.0
 20
65.0
 30
0.0
  0
VERTEX
  8
LAYER4
 10
35.0
 20
70.0
 30
0.0
  0
SEQEND
  8
LAYER4
  0
TEXT
  8
LAYER61
 10
50.0
 20
40.0
 30
0.0
 40
3.0
  1
3E
 50
0.0
  0
TEXT
  8
LAYER61
 10
50.0
 20
60.0
 30
0.0
 40
3.0
  1
2B
 50
0.0
  0
TEXT
  8
LAYER61
 10
50.0
 20
90.0
 30
0.0
 40
3.0
  1
1C
 50
0.0
  0
ENDBLK
  8
0
  0
BLOCK
  8
0
  2
PNP1
 70
0
  3
PNP1
 10
0.0
 20
0.0
 30
0.0
  0
POLYLINE
  8
LAYER1
 66
1
 70
0
 40
0.0
 41
0.0
  0
VERTEX
  8
LAYER1
 10
20.0
 20
10.0
 30
0.0
  0
VERTEX
  8
LAYER1
 10
70.0
 20
10.0
 30
0.0
  0
VERTEX
  8
LAYER1
 10
70.0
 20
95.0
 30
0.0
  0
VERTEX
  8
LAYER1
 10
20.0
 20
95.0
 30
0.0
  0
VERTEX
  8
LAYER1
 10
20.0
 20
10.0
 30
0.0
  0
SEQEND
  8
LAYER1
  0
POLYLINE
  8
LAYER2
 66
1
 70
0
 40
0.0
 41
0.0
  0
VERTEX
  8
LAYER2
 10
80.0
 20
-10.0
 30
0.0
  0
VERTEX
  8
LAYER2
 10
90.0
 20
-10.0
 30
0.0
  0
VERTEX
  8
LAYER2
 10
90.0
 20
115.0
 30
0.0
  0
VERTEX
  8
LAYER2
 10
80.0
 20
115.0
 30
0.0
  0
VERTEX
  8
LAYER2
 10
80.0
 20
-10.0
 30
0.0
  0
SEQEND
  8
LAYER2
  0
POLYLINE
  8
LAYER2
 66
1
 70
0
 40
0.0
 41
0.0
  0
VERTEX
  8
LAYER2
 10
10.0
 20
-10.0
 30
0.0
  0
VERTEX
  8
LAYER2
 10
80.0
 20
-10.0
 30
0.0
  0
VERTEX
  8
LAYER2
 10
80.0
 20
0.0
 30
0.0
  0
VERTEX
  8
LAYER2
 10
10.0
 20
0.0
 30
0.0
  0
VERTEX
  8
LAYER2
 10
10.0
 20
-10.0
 30
0.0
  0
SEQEND
  8
LAYER2
  0
POLYLINE
  8
LAYER2
 66
1
 70
0
 40
0.0
 41
0.0
  0
VERTEX
  8
LAYER2
 10
0.0
 20
-10.0
 30
0.0
  0
VERTEX
  8
LAYER2
 10
10.0
 20
-10.0
 30
0.0
  0
VERTEX
  8
LAYER2
 10
10.0
 20
115.0
 30
0.0
  0
VERTEX
  8
LAYER2
 10
0.0
 20
115.0
 30
0.0
  0
VERTEX
  8
LAYER2
 10
0.0
 20
-10.0
 30
0.0
  0
SEQEND
  8
LAYER2
  0
POLYLINE
  8
LAYER2
 66
1
 70
0
 40
0.0
 41
0.0
  0
VERTEX
  8
LAYER2
 10
10.0
 20
105.0
 30
0.0
  0
VERTEX
  8
LAYER2
 10
80.0
 20
105.0
 30
0.0
  0
VERTEX
  8
LAYER2
 10
80.0
 20
115.0
 30
0.0
  0
VERTEX
  8
LAYER2
 10
10.0
 20
115.0
 30
0.0
  0
VERTEX
  8
LAYER2
 10
10.0
 20
105.0
 30
0.0
  0
SEQEND
  8
LAYER2
  0
POLYLINE
  8
LAYER3
 66
1
 70
0
 40
0.0
 41
0.0
  0
VERTEX
  8
LAYER3
 10
34.0
 20
84.0
 30
0.0
  0
VERTEX
  8
LAYER3
 10
56.0
 20
84.0
 30
0.0
  0
VERTEX
  8
LAYER3
 10
56.0
 20
91.0
 30
0.0
  0
VERTEX
  8
LAYER3
 10
34.0
 20
91.0
 30
0.0
  0
VERTEX
  8
LAYER3
 10
34.0
 20
84.0
 30
0.0
  0
SEQEND
  8
LAYER3
  0
POLYLINE
  8
LAYER6
 66
1
 70
0
 40
0.0
 41
0.0
  0
VERTEX
  8
LAYER6
 10
30.0
 20
80.0
 30
0.0
  0
VERTEX
  8
LAYER6
 10
60.0
 20
80.0
 30
0.0
  0
VERTEX
  8
LAYER6
 10
60.0
 20
95.0
 30
0.0
  0
VERTEX
  8
LAYER6
 10
30.0
 20
95.0
 30
0.0
  0
VERTEX
  8
LAYER6
 10
30.0
 20
80.0
 30
0.0
  0
SEQEND
  8
LAYER6
  0
POLYLINE
  8
LAYER7
 66
1
 70
0
 40
0.0
 41
0.0
  0
VERTEX
  8
LAYER7
 10
35.0
 20
20.0
 30
0.0
  0
VERTEX
  8
LAYER7
 10
55.0
 20
20.0
 30
0.0
  0
VERTEX
  8
LAYER7
 10
55.0
 20
25.0
 30
0.0
  0
VERTEX
  8
LAYER7
 10
35.0
 20
25.0
 30
0.0
  0
VERTEX
  8
LAYER7
 10
35.0
 20
20.0
 30
0.0
  0
SEQEND
  8
LAYER7
  0
POLYLINE
  8
LAYER7
 66
1
 70
0
 40
0.0
 41
0.0
  0
VERTEX
  8
LAYER7
 10
40.0
 20
51.0
 30
0.0
  0
VERTEX
  8
LAYER7
 10
50.0
 20
51.0
 30
0.0
  0
VERTEX
  8
LAYER7
 10
50.0
 20
59.0
 30
0.0
  0
VERTEX
  8
LAYER7
 10
40.0
 20
59.0
 30
0.0
  0
VERTEX
  8
LAYER7
 10
40.0
 20
51.0
 30
0.0
  0
SEQEND
  8
LAYER7
  0
POLYLINE
  8
LAYER7
 66
1
 70
0
 40
0.0
 41
0.0
  0
VERTEX
  8
LAYER7
 10
35.0
 20
85.0
 30
0.0
  0
VERTEX
  8
LAYER7
 10
55.0
 20
85.0
 30
0.0
  0
VERTEX
  8
LAYER7
 10
55.0
 20
90.0
 30
0.0
  0
VERTEX
  8
LAYER7
 10
35.0
 20
90.0
 30
0.0
  0
VERTEX
  8
LAYER7
 10
35.0
 20
85.0
 30
0.0
  0
SEQEND
  8
LAYER7
  0
POLYLINE
  8
LAYER8
 66
1
 70
0
 40
0.0
 41
0.0
  0
VERTEX
  8
LAYER8
 10
33.0
 20
18.0
 30
0.0
  0
VERTEX
  8
LAYER8
 10
57.0
 20
18.0
 30
0.0
  0
VERTEX
  8
LAYER8
 10
57.0
 20
27.0
 30
0.0
  0
VERTEX
  8
LAYER8
 10
33.0
 20
27.0
 30
0.0
  0
VERTEX
  8
LAYER8
 10
33.0
 20
18.0
 30
0.0
  0
SEQEND
  8
LAYER8
  0
POLYLINE
  8
LAYER8
 66
1
 70
0
 40
0.0
 41
0.0
  0
VERTEX
  8
LAYER8
 10
33.0
 20
83.0
 30
0.0
  0
VERTEX
  8
LAYER8
 10
57.0
 20
83.0
 30
0.0
  0
VERTEX
  8
LAYER8
 10
57.0
 20
92.0
 30
0.0
  0
VERTEX
  8
LAYER8
 10
33.0
 20
92.0
 30
0.0
  0
VERTEX
  8
LAYER8
 10
33.0
 20
83.0
 30
0.0
  0
SEQEND
  8
LAYER8
  0
POLYLINE
  8
LAYER4
 66
1
 70
0
 40
0.0
 41
0.0
  0
VERTEX
  8
LAYER4
 10
30.0
 20
15.0
 30
0.0
  0
VERTEX
  8
LAYER4
 10
25.0
 20
20.0
 30
0.0
  0
VERTEX
  8
LAYER4
 10
25.0
 20
55.0
 30
0.0
  0
VERTEX
  8
LAYER4
 10
25.5
 20
59.0
 30
0.0
  0
VERTEX
  8
LAYER4
 10
26.5
 20
62.7
 30
0.0
  0
VERTEX
  8
LAYER4
 10
28.2
 20
66.0
 30
0.0
  0
VERTEX
  8
LAYER4
 10
30.7
 20
69.2
 30
0.0
  0
VERTEX
  8
LAYER4
 10
34.0
 20
71.7
 30
0.0
  0
VERTEX
  8
LAYER4
 10
37.2
 20
73.5
 30
0.0
  0
VERTEX
  8
LAYER4
 10
41.0
 20
74.5
 30
0.0
  0
VERTEX
  8
LAYER4
 10
45.0
 20
75.0
 30
0.0
  0
VERTEX
  8
LAYER4
 10
49.0
 20
74.5
 30
0.0
  0
VERTEX
  8
LAYER4
 10
52.7
 20
73.5
 30
0.0
  0
VERTEX
  8
LAYER4
 10
56.0
 20
71.7
 30
0.0
  0
VERTEX
  8
LAYER4
 10
59.2
 20
69.2
 30
0.0
  0
VERTEX
  8
LAYER4
 10
61.7
 20
66.0
 30
0.0
  0
VERTEX
  8
LAYER4
 10
63.5
 20
62.7
 30
0.0
  0
VERTEX
  8
LAYER4
 10
64.5
 20
59.0
 30
0.0
  0
VERTEX
  8
LAYER4
 10
65.0
 20
55.0
 30
0.0
  0
VERTEX
  8
LAYER4
 10
65.0
 20
20.0
 30
0.0
  0
VERTEX
  8
LAYER4
 10
60.0
 20
15.0
 30
0.0
  0
VERTEX
  8
LAYER4
 10
45.0
 20
15.0
 30
0.0
  0
VERTEX
  8
LAYER4
 10
45.0
 20
40.0
 30
0.0
  0
VERTEX
  8
LAYER4
 10
48.0
 20
40.2
 30
0.0
  0
VERTEX
  8
LAYER4
 10
50.7
 20
41.2
 30
0.0
  0
VERTEX
  8
LAYER4
 10
53.2
 20
42.5
 30
0.0
  0
VERTEX
  8
LAYER4
 10
55.5
 20
44.5
 30
0.0
  0
VERTEX
  8
LAYER4
 10
57.5
 20
46.7
 30
0.0
  0
VERTEX
  8
LAYER4
 10
58.7
 20
49.2
 30
0.0
  0
VERTEX
  8
LAYER4
 10
59.7
 20
52.0
 30
0.0
  0
VERTEX
  8
LAYER4
 10
60.0
 20
55.0
 30
0.0
  0
VERTEX
  8
LAYER4
 10
59.7
 20
58.0
 30
0.0
  0
VERTEX
  8
LAYER4
 10
58.7
 20
60.7
 30
0.0
  0
VERTEX
  8
LAYER4
 10
57.5
 20
63.2
 30
0.0
  0
VERTEX
  8
LAYER4
 10
55.5
 20
65.5
 30
0.0
  0
VERTEX
  8
LAYER4
 10
53.2
 20
67.5
 30
0.0
  0
VERTEX
  8
LAYER4
 10
50.7
 20
68.7
 30
0.0
  0
VERTEX
  8
LAYER4
 10
48.0
 20
69.7
 30
0.0
  0
VERTEX
  8
LAYER4
 10
45.0
 20
70.0
 30
0.0
  0
VERTEX
  8
LAYER4
 10
42.0
 20
69.7
 30
0.0
  0
VERTEX
  8
LAYER4
 10
39.2
 20
68.7
 30
0.0
  0
VERTEX
  8
LAYER4
 10
36.7
 20
67.5
 30
0.0
  0
VERTEX
  8
LAYER4
 10
34.5
 20
65.5
 30
0.0
  0
VERTEX
  8
LAYER4
 10
32.5
 20
63.2
 30
0.0
  0
VERTEX
  8
LAYER4
 10
31.2
 20
60.7
 30
0.0
  0
VERTEX
  8
LAYER4
 10
30.2
 20
58.0
 30
0.0
  0
VERTEX
  8
LAYER4
 10
30.0
 20
55.0
 30
0.0
  0
VERTEX
  8
LAYER4
 10
30.2
 20
52.0
 30
0.0
  0
VERTEX
  8
LAYER4
 10
31.2
 20
49.2
 30
0.0
  0
VERTEX
  8
LAYER4
 10
32.5
 20
46.7
 30
0.0
  0
VERTEX
  8
LAYER4
 10
34.5
 20
44.5
 30
0.0
  0
VERTEX
  8
LAYER4
 10
36.7
 20
42.5
 30
0.0
  0
VERTEX
  8
LAYER4
 10
39.2
 20
41.2
 30
0.0
  0
VERTEX
  8
LAYER4
 10
42.0
 20
40.2
 30
0.0
  0
VERTEX
  8
LAYER4
 10
45.0
 20
40.0
 30
0.0
  0
VERTEX
  8
LAYER4
 10
45.0
 20
15.0
 30
0.0
  0
VERTEX
  8
LAYER4
 10
30.0
 20
15.0
 30
0.0
  0
SEQEND
  8
LAYER4
  0
POLYLINE
  8
LAYER4
 66
1
 70
0
 40
0.0
 41
0.0
  0
VERTEX
  8
LAYER4
 10
35.0
 20
55.0
 30
0.0
  0
VERTEX
  8
LAYER4
 10
35.2
 20
53.0
 30
0.0
  0
VERTEX
  8
LAYER4
 10
35.7
 20
51.2
 30
0.0
  0
VERTEX
  8
LAYER4
 10
36.7
 20
49.5
 30
0.0
  0
VERTEX
  8
LAYER4
 10
38.0
 20
48.0
 30
0.0
  0
VERTEX
  8
LAYER4
 10
39.5
 20
46.7
 30
0.0
  0
VERTEX
  8
LAYER4
 10
41.2
 20
45.7
 30
0.0
  0
VERTEX
  8
LAYER4
 10
43.0
 20
45.2
 30
0.0
  0
VERTEX
  8
LAYER4
 10
45.0
 20
45.0
 30
0.0
  0
VERTEX
  8
LAYER4
 10
47.0
 20
45.2
 30
0.0
  0
VERTEX
  8
LAYER4
 10
48.7
 20
45.7
 30
0.0
  0
VERTEX
  8
LAYER4
 10
50.5
 20
46.7
 30
0.0
  0
VERTEX
  8
LAYER4
 10
52.0
 20
48.0
 30
0.0
  0
VERTEX
  8
LAYER4
 10
53.2
 20
49.5
 30
0.0
  0
VERTEX
  8
LAYER4
 10
54.2
 20
51.2
 30
0.0
  0
VERTEX
  8
LAYER4
 10
54.7
 20
53.0
 30
0.0
  0
VERTEX
  8
LAYER4
 10
55.0
 20
55.0
 30
0.0
  0
VERTEX
  8
LAYER4
 10
54.7
 20
57.0
 30
0.0
  0
VERTEX
  8
LAYER4
 10
54.2
 20
58.7
 30
0.0
  0
VERTEX
  8
LAYER4
 10
53.2
 20
60.5
 30
0.0
  0
VERTEX
  8
LAYER4
 10
52.0
 20
62.0
 30
0.0
  0
VERTEX
  8
LAYER4
 10
50.5
 20
63.2
 30
0.0
  0
VERTEX
  8
LAYER4
 10
48.7
 20
64.2
 30
0.0
  0
VERTEX
  8
LAYER4
 10
47.0
 20
64.7
 30
0.0
  0
VERTEX
  8
LAYER4
 10
45.0
 20
65.0
 30
0.0
  0
VERTEX
  8
LAYER4
 10
43.0
 20
64.7
 30
0.0
  0
VERTEX
  8
LAYER4
 10
41.2
 20
64.2
 30
0.0
  0
VERTEX
  8
LAYER4
 10
39.5
 20
63.2
 30
0.0
  0
VERTEX
  8
LAYER4
 10
38.0
 20
62.0
 30
0.0
  0
VERTEX
  8
LAYER4
 10
36.7
 20
60.5
 30
0.0
  0
VERTEX
  8
LAYER4
 10
35.7
 20
58.7
 30
0.0
  0
VERTEX
  8
LAYER4
 10
35.2
 20
57.0
 30
0.0
  0
VERTEX
  8
LAYER4
 10
35.0
 20
55.0
 30
0.0
  0
SEQEND
  8
LAYER4
  0
POLYLINE
  8
LAYER8
 66
1
 70
0
 40
0.0
 41
0.0
  0
VERTEX
  8
LAYER8
 10
28.0
 20
55.0
 30
0.0
  0
VERTEX
  8
LAYER8
 10
28.2
 20
58.5
 30
0.0
  0
VERTEX
  8
LAYER8
 10
29.5
 20
61.5
 30
0.0
  0
VERTEX
  8
LAYER8
 10
30.7
 20
64.5
 30
0.0
  0
VERTEX
  8
LAYER8
 10
33.0
 20
67.0
 30
0.0
  0
VERTEX
  8
LAYER8
 10
35.5
 20
69.2
 30
0.0
  0
VERTEX
  8
LAYER8
 10
38.5
 20
70.5
 30
0.0
  0
VERTEX
  8
LAYER8
 10
41.5
 20
71.7
 30
0.0
  0
VERTEX
  8
LAYER8
 10
45.0
 20
72.0
 30
0.0
  0
VERTEX
  8
LAYER8
 10
48.5
 20
71.7
 30
0.0
  0
VERTEX
  8
LAYER8
 10
51.5
 20
70.5
 30
0.0
  0
VERTEX
  8
LAYER8
 10
54.5
 20
69.2
 30
0.0
  0
VERTEX
  8
LAYER8
 10
57.0
 20
67.0
 30
0.0
  0
VERTEX
  8
LAYER8
 10
59.2
 20
64.5
 30
0.0
  0
VERTEX
  8
LAYER8
 10
60.5
 20
61.5
 30
0.0
  0
VERTEX
  8
LAYER8
 10
61.7
 20
58.5
 30
0.0
  0
VERTEX
  8
LAYER8
 10
62.0
 20
55.0
 30
0.0
  0
VERTEX
  8
LAYER8
 10
61.7
 20
51.5
 30
0.0
  0
VERTEX
  8
LAYER8
 10
60.5
 20
48.5
 30
0.0
  0
VERTEX
  8
LAYER8
 10
59.2
 20
45.5
 30
0.0
  0
VERTEX
  8
LAYER8
 10
57.0
 20
43.0
 30
0.0
  0
VERTEX
  8
LAYER8
 10
54.5
 20
40.7
 30
0.0
  0
VERTEX
  8
LAYER8
 10
51.5
 20
39.5
 30
0.0
  0
VERTEX
  8
LAYER8
 10
48.5
 20
38.2
 30
0.0
  0
VERTEX
  8
LAYER8
 10
45.0
 20
38.0
 30
0.0
  0
VERTEX
  8
LAYER8
 10
41.5
 20
38.2
 30
0.0
  0
VERTEX
  8
LAYER8
 10
38.5
 20
39.5
 30
0.0
  0
VERTEX
  8
LAYER8
 10
35.5
 20
40.7
 30
0.0
  0
VERTEX
  8
LAYER8
 10
33.0
 20
43.0
 30
0.0
  0
VERTEX
  8
LAYER8
 10
30.7
 20
45.5
 30
0.0
  0
VERTEX
  8
LAYER8
 10
29.5
 20
48.5
 30
0.0
  0
VERTEX
  8
LAYER8
 10
28.2
 20
51.5
 30
0.0
  0
VERTEX
  8
LAYER8
 10
28.0
 20
55.0
 30
0.0
  0
SEQEND
  8
LAYER8
  0
TEXT
  8
LAYER61
 10
45.0
 20
55.0
 30
0.0
 40
3.0
  1
3E
 50
0.0
  0
TEXT
  8
LAYER61
 10
45.0
 20
20.0
 30
0.0
 40
3.0
  1
1C
 50
0.0
  0
TEXT
  8
LAYER61
 10
45.0
 20
90.0
 30
0.0
 40
3.0
  1
2B
 50
0.0
  0
ENDBLK
  8
0
  0
BLOCK
  8
0
  2
PSRC1
 70
0
  3
PSRC1
 10
0.0
 20
0.0
 30
0.0
  0
POLYLINE
  8
LAYER1
 66
1
 70
0
 40
0.0
 41
0.0
  0
VERTEX
  8
LAYER1
 10
20.0
 20
20.0
 30
0.0
  0
VERTEX
  8
LAYER1
 10
120.0
 20
20.0
 30
0.0
  0
VERTEX
  8
LAYER1
 10
120.0
 20
105.0
 30
0.0
  0
VERTEX
  8
LAYER1
 10
20.0
 20
105.0
 30
0.0
  0
VERTEX
  8
LAYER1
 10
20.0
 20
20.0
 30
0.0
  0
SEQEND
  8
LAYER1
  0
POLYLINE
  8
LAYER2
 66
1
 70
0
 40
0.0
 41
0.0
  0
VERTEX
  8
LAYER2
 10
130.0
 20
0.0
 30
0.0
  0
VERTEX
  8
LAYER2
 10
140.0
 20
0.0
 30
0.0
  0
VERTEX
  8
LAYER2
 10
140.0
 20
125.0
 30
0.0
  0
VERTEX
  8
LAYER2
 10
130.0
 20
125.0
 30
0.0
  0
VERTEX
  8
LAYER2
 10
130.0
 20
0.0
 30
0.0
  0
SEQEND
  8
LAYER2
  0
POLYLINE
  8
LAYER2
 66
1
 70
0
 40
0.0
 41
0.0
  0
VERTEX
  8
LAYER2
 10
10.0
 20
0.0
 30
0.0
  0
VERTEX
  8
LAYER2
 10
130.0
 20
0.0
 30
0.0
  0
VERTEX
  8
LAYER2
 10
130.0
 20
10.0
 30
0.0
  0
VERTEX
  8
LAYER2
 10
10.0
 20
10.0
 30
0.0
  0
VERTEX
  8
LAYER2
 10
10.0
 20
0.0
 30
0.0
  0
SEQEND
  8
LAYER2
  0
POLYLINE
  8
LAYER2
 66
1
 70
0
 40
0.0
 41
0.0
  0
VERTEX
  8
LAYER2
 10
0.0
 20
0.0
 30
0.0
  0
VERTEX
  8
LAYER2
 10
10.0
 20
0.0
 30
0.0
  0
VERTEX
  8
LAYER2
 10
10.0
 20
125.0
 30
0.0
  0
VERTEX
  8
LAYER2
 10
0.0
 20
125.0
 30
0.0
  0
VERTEX
  8
LAYER2
 10
0.0
 20
0.0
 30
0.0
  0
SEQEND
  8
LAYER2
  0
POLYLINE
  8
LAYER2
 66
1
 70
0
 40
0.0
 41
0.0
  0
VERTEX
  8
LAYER2
 10
10.0
 20
115.0
 30
0.0
  0
VERTEX
  8
LAYER2
 10
130.0
 20
115.0
 30
0.0
  0
VERTEX
  8
LAYER2
 10
130.0
 20
125.0
 30
0.0
  0
VERTEX
  8
LAYER2
 10
10.0
 20
125.0
 30
0.0
  0
VERTEX
  8
LAYER2
 10
10.0
 20
115.0
 30
0.0
  0
SEQEND
  8
LAYER2
  0
POLYLINE
  8
LAYER3
 66
1
 70
0
 40
0.0
 41
0.0
  0
VERTEX
  8
LAYER3
 10
34.0
 20
94.0
 30
0.0
  0
VERTEX
  8
LAYER3
 10
106.0
 20
94.0
 30
0.0
  0
VERTEX
  8
LAYER3
 10
106.0
 20
101.0
 30
0.0
  0
VERTEX
  8
LAYER3
 10
34.0
 20
101.0
 30
0.0
  0
VERTEX
  8
LAYER3
 10
34.0
 20
94.0
 30
0.0
  0
SEQEND
  8
LAYER3
  0
POLYLINE
  8
LAYER6
 66
1
 70
0
 40
0.0
 41
0.0
  0
VERTEX
  8
LAYER6
 10
31.0
 20
91.0
 30
0.0
  0
VERTEX
  8
LAYER6
 10
109.0
 20
91.0
 30
0.0
  0
VERTEX
  8
LAYER6
 10
109.0
 20
104.0
 30
0.0
  0
VERTEX
  8
LAYER6
 10
31.0
 20
104.0
 30
0.0
  0
VERTEX
  8
LAYER6
 10
31.0
 20
91.0
 30
0.0
  0
SEQEND
  8
LAYER6
  0
POLYLINE
  8
LAYER7
 66
1
 70
0
 40
0.0
 41
0.0
  0
VERTEX
  8
LAYER7
 10
32.0
 20
30.0
 30
0.0
  0
VERTEX
  8
LAYER7
 10
37.0
 20
30.0
 30
0.0
  0
VERTEX
  8
LAYER7
 10
37.0
 20
35.0
 30
0.0
  0
VERTEX
  8
LAYER7
 10
32.0
 20
35.0
 30
0.0
  0
VERTEX
  8
LAYER7
 10
32.0
 20
30.0
 30
0.0
  0
SEQEND
  8
LAYER7
  0
POLYLINE
  8
LAYER7
 66
1
 70
0
 40
0.0
 41
0.0
  0
VERTEX
  8
LAYER7
 10
85.0
 20
30.0
 30
0.0
  0
VERTEX
  8
LAYER7
 10
105.0
 20
30.0
 30
0.0
  0
VERTEX
  8
LAYER7
 10
105.0
 20
35.0
 30
0.0
  0
VERTEX
  8
LAYER7
 10
85.0
 20
35.0
 30
0.0
  0
VERTEX
  8
LAYER7
 10
85.0
 20
30.0
 30
0.0
  0
SEQEND
  8
LAYER7
  0
POLYLINE
  8
LAYER7
 66
1
 70
0
 40
0.0
 41
0.0
  0
VERTEX
  8
LAYER7
 10
53.0
 20
30.0
 30
0.0
  0
VERTEX
  8
LAYER7
 10
58.0
 20
30.0
 30
0.0
  0
VERTEX
  8
LAYER7
 10
58.0
 20
35.0
 30
0.0
  0
VERTEX
  8
LAYER7
 10
53.0
 20
35.0
 30
0.0
  0
VERTEX
  8
LAYER7
 10
53.0
 20
30.0
 30
0.0
  0
SEQEND
  8
LAYER7
  0
POLYLINE
  8
LAYER7
 66
1
 70
0
 40
0.0
 41
0.0
  0
VERTEX
  8
LAYER7
 10
90.0
 20
61.0
 30
0.0
  0
VERTEX
  8
LAYER7
 10
100.0
 20
61.0
 30
0.0
  0
VERTEX
  8
LAYER7
 10
100.0
 20
69.0
 30
0.0
  0
VERTEX
  8
LAYER7
 10
90.0
 20
69.0
 30
0.0
  0
VERTEX
  8
LAYER7
 10
90.0
 20
61.0
 30
0.0
  0
SEQEND
  8
LAYER7
  0
POLYLINE
  8
LAYER7
 66
1
 70
0
 40
0.0
 41
0.0
  0
VERTEX
  8
LAYER7
 10
40.0
 20
61.0
 30
0.0
  0
VERTEX
  8
LAYER7
 10
50.0
 20
61.0
 30
0.0
  0
VERTEX
  8
LAYER7
 10
50.0
 20
69.0
 30
0.0
  0
VERTEX
  8
LAYER7
 10
40.0
 20
69.0
 30
0.0
  0
VERTEX
  8
LAYER7
 10
40.0
 20
61.0
 30
0.0
  0
SEQEND
  8
LAYER7
  0
POLYLINE
  8
LAYER7
 66
1
 70
0
 40
0.0
 41
0.0
  0
VERTEX
  8
LAYER7
 10
35.0
 20
95.0
 30
0.0
  0
VERTEX
  8
LAYER7
 10
105.0
 20
95.0
 30
0.0
  0
VERTEX
  8
LAYER7
 10
105.0
 20
100.0
 30
0.0
  0
VERTEX
  8
LAYER7
 10
35.0
 20
100.0
 30
0.0
  0
VERTEX
  8
LAYER7
 10
35.0
 20
95.0
 30
0.0
  0
SEQEND
  8
LAYER7
  0
POLYLINE
  8
LAYER8
 66
1
 70
0
 40
0.0
 41
0.0
  0
VERTEX
  8
LAYER8
 10
83.0
 20
28.0
 30
0.0
  0
VERTEX
  8
LAYER8
 10
107.0
 20
28.0
 30
0.0
  0
VERTEX
  8
LAYER8
 10
107.0
 20
37.0
 30
0.0
  0
VERTEX
  8
LAYER8
 10
83.0
 20
37.0
 30
0.0
  0
VERTEX
  8
LAYER8
 10
83.0
 20
28.0
 30
0.0
  0
SEQEND
  8
LAYER8
  0
POLYLINE
  8
LAYER8
 66
1
 70
0
 40
0.0
 41
0.0
  0
VERTEX
  8
LAYER8
 10
30.0
 20
28.0
 30
0.0
  0
VERTEX
  8
LAYER8
 10
39.0
 20
28.0
 30
0.0
  0
VERTEX
  8
LAYER8
 10
39.0
 20
37.0
 30
0.0
  0
VERTEX
  8
LAYER8
 10
30.0
 20
37.0
 30
0.0
  0
VERTEX
  8
LAYER8
 10
30.0
 20
28.0
 30
0.0
  0
SEQEND
  8
LAYER8
  0
POLYLINE
  8
LAYER8
 66
1
 70
0
 40
0.0
 41
0.0
  0
VERTEX
  8
LAYER8
 10
51.0
 20
28.0
 30
0.0
  0
VERTEX
  8
LAYER8
 10
60.0
 20
28.0
 30
0.0
  0
VERTEX
  8
LAYER8
 10
60.0
 20
37.0
 30
0.0
  0
VERTEX
  8
LAYER8
 10
51.0
 20
37.0
 30
0.0
  0
VERTEX
  8
LAYER8
 10
51.0
 20
28.0
 30
0.0
  0
SEQEND
  8
LAYER8
  0
POLYLINE
  8
LAYER8
 66
1
 70
0
 40
0.0
 41
0.0
  0
VERTEX
  8
LAYER8
 10
33.0
 20
93.0
 30
0.0
  0
VERTEX
  8
LAYER8
 10
107.0
 20
93.0
 30
0.0
  0
VERTEX
  8
LAYER8
 10
107.0
 20
102.0
 30
0.0
  0
VERTEX
  8
LAYER8
 10
33.0
 20
102.0
 30
0.0
  0
VERTEX
  8
LAYER8
 10
33.0
 20
93.0
 30
0.0
  0
SEQEND
  8
LAYER8
  0
POLYLINE
  8
LAYER4
 66
1
 70
0
 40
0.0
 41
0.0
  0
VERTEX
  8
LAYER4
 10
35.0
 20
65.0
 30
0.0
  0
VERTEX
  8
LAYER4
 10
35.2
 20
63.0
 30
0.0
  0
VERTEX
  8
LAYER4
 10
35.7
 20
61.2
 30
0.0
  0
VERTEX
  8
LAYER4
 10
36.7
 20
59.5
 30
0.0
  0
VERTEX
  8
LAYER4
 10
38.0
 20
58.0
 30
0.0
  0
VERTEX
  8
LAYER4
 10
39.5
 20
56.7
 30
0.0
  0
VERTEX
  8
LAYER4
 10
41.2
 20
55.7
 30
0.0
  0
VERTEX
  8
LAYER4
 10
43.0
 20
55.2
 30
0.0
  0
VERTEX
  8
LAYER4
 10
45.0
 20
55.0
 30
0.0
  0
VERTEX
  8
LAYER4
 10
47.0
 20
55.2
 30
0.0
  0
VERTEX
  8
LAYER4
 10
48.7
 20
55.7
 30
0.0
  0
VERTEX
  8
LAYER4
 10
50.5
 20
56.7
 30
0.0
  0
VERTEX
  8
LAYER4
 10
52.0
 20
58.0
 30
0.0
  0
VERTEX
  8
LAYER4
 10
53.2
 20
59.5
 30
0.0
  0
VERTEX
  8
LAYER4
 10
54.2
 20
61.2
 30
0.0
  0
VERTEX
  8
LAYER4
 10
54.7
 20
63.0
 30
0.0
  0
VERTEX
  8
LAYER4
 10
55.0
 20
65.0
 30
0.0
  0
VERTEX
  8
LAYER4
 10
54.7
 20
67.0
 30
0.0
  0
VERTEX
  8
LAYER4
 10
54.2
 20
68.7
 30
0.0
  0
VERTEX
  8
LAYER4
 10
53.2
 20
70.5
 30
0.0
  0
VERTEX
  8
LAYER4
 10
52.0
 20
72.0
 30
0.0
  0
VERTEX
  8
LAYER4
 10
50.5
 20
73.2
 30
0.0
  0
VERTEX
  8
LAYER4
 10
48.7
 20
74.2
 30
0.0
  0
VERTEX
  8
LAYER4
 10
47.0
 20
74.7
 30
0.0
  0
VERTEX
  8
LAYER4
 10
45.0
 20
75.0
 30
0.0
  0
VERTEX
  8
LAYER4
 10
43.0
 20
74.7
 30
0.0
  0
VERTEX
  8
LAYER4
 10
41.2
 20
74.2
 30
0.0
  0
VERTEX
  8
LAYER4
 10
39.5
 20
73.2
 30
0.0
  0
VERTEX
  8
LAYER4
 10
38.0
 20
72.0
 30
0.0
  0
VERTEX
  8
LAYER4
 10
36.7
 20
70.5
 30
0.0
  0
VERTEX
  8
LAYER4
 10
35.7
 20
68.7
 30
0.0
  0
VERTEX
  8
LAYER4
 10
35.2
 20
67.0
 30
0.0
  0
VERTEX
  8
LAYER4
 10
35.0
 20
65.0
 30
0.0
  0
SEQEND
  8
LAYER4
  0
POLYLINE
  8
LAYER4
 66
1
 70
0
 40
0.0
 41
0.0
  0
VERTEX
  8
LAYER4
 10
80.0
 20
25.0
 30
0.0
  0
VERTEX
  8
LAYER4
 10
75.0
 20
30.0
 30
0.0
  0
VERTEX
  8
LAYER4
 10
75.0
 20
65.0
 30
0.0
  0
VERTEX
  8
LAYER4
 10
75.5
 20
69.0
 30
0.0
  0
VERTEX
  8
LAYER4
 10
76.5
 20
72.7
 30
0.0
  0
VERTEX
  8
LAYER4
 10
78.2
 20
76.0
 30
0.0
  0
VERTEX
  8
LAYER4
 10
80.7
 20
79.2
 30
0.0
  0
VERTEX
  8
LAYER4
 10
84.0
 20
81.7
 30
0.0
  0
VERTEX
  8
LAYER4
 10
87.2
 20
83.5
 30
0.0
  0
VERTEX
  8
LAYER4
 10
91.0
 20
84.5
 30
0.0
  0
VERTEX
  8
LAYER4
 10
95.0
 20
85.0
 30
0.0
  0
VERTEX
  8
LAYER4
 10
99.0
 20
84.5
 30
0.0
  0
VERTEX
  8
LAYER4
 10
102.7
 20
83.5
 30
0.0
  0
VERTEX
  8
LAYER4
 10
106.0
 20
81.7
 30
0.0
  0
VERTEX
  8
LAYER4
 10
109.2
 20
79.2
 30
0.0
  0
VERTEX
  8
LAYER4
 10
111.7
 20
76.0
 30
0.0
  0
VERTEX
  8
LAYER4
 10
113.5
 20
72.7
 30
0.0
  0
VERTEX
  8
LAYER4
 10
114.5
 20
69.0
 30
0.0
  0
VERTEX
  8
LAYER4
 10
115.0
 20
65.0
 30
0.0
  0
VERTEX
  8
LAYER4
 10
115.0
 20
30.0
 30
0.0
  0
VERTEX
  8
LAYER4
 10
110.0
 20
25.0
 30
0.0
  0
VERTEX
  8
LAYER4
 10
95.0
 20
25.0
 30
0.0
  0
VERTEX
  8
LAYER4
 10
95.0
 20
50.0
 30
0.0
  0
VERTEX
  8
LAYER4
 10
98.0
 20
50.2
 30
0.0
  0
VERTEX
  8
LAYER4
 10
100.7
 20
51.2
 30
0.0
  0
VERTEX
  8
LAYER4
 10
103.2
 20
52.5
 30
0.0
  0
VERTEX
  8
LAYER4
 10
105.5
 20
54.5
 30
0.0
  0
VERTEX
  8
LAYER4
 10
107.5
 20
56.7
 30
0.0
  0
VERTEX
  8
LAYER4
 10
108.7
 20
59.2
 30
0.0
  0
VERTEX
  8
LAYER4
 10
109.7
 20
62.0
 30
0.0
  0
VERTEX
  8
LAYER4
 10
110.0
 20
65.0
 30
0.0
  0
VERTEX
  8
LAYER4
 10
109.7
 20
68.0
 30
0.0
  0
VERTEX
  8
LAYER4
 10
108.7
 20
70.7
 30
0.0
  0
VERTEX
  8
LAYER4
 10
107.5
 20
73.2
 30
0.0
  0
VERTEX
  8
LAYER4
 10
105.5
 20
75.5
 30
0.0
  0
VERTEX
  8
LAYER4
 10
103.2
 20
77.5
 30
0.0
  0
VERTEX
  8
LAYER4
 10
100.7
 20
78.7
 30
0.0
  0
VERTEX
  8
LAYER4
 10
98.0
 20
79.7
 30
0.0
  0
VERTEX
  8
LAYER4
 10
95.0
 20
80.0
 30
0.0
  0
VERTEX
  8
LAYER4
 10
92.0
 20
79.7
 30
0.0
  0
VERTEX
  8
LAYER4
 10
89.2
 20
78.7
 30
0.0
  0
VERTEX
  8
LAYER4
 10
86.7
 20
77.5
 30
0.0
  0
VERTEX
  8
LAYER4
 10
84.5
 20
75.5
 30
0.0
  0
VERTEX
  8
LAYER4
 10
82.5
 20
73.2
 30
0.0
  0
VERTEX
  8
LAYER4
 10
81.2
 20
70.7
 30
0.0
  0
VERTEX
  8
LAYER4
 10
80.2
 20
68.0
 30
0.0
  0
VERTEX
  8
LAYER4
 10
80.0
 20
65.0
 30
0.0
  0
VERTEX
  8
LAYER4
 10
80.2
 20
62.0
 30
0.0
  0
VERTEX
  8
LAYER4
 10
81.2
 20
59.2
 30
0.0
  0
VERTEX
  8
LAYER4
 10
82.5
 20
56.7
 30
0.0
  0
VERTEX
  8
LAYER4
 10
84.5
 20
54.5
 30
0.0
  0
VERTEX
  8
LAYER4
 10
86.7
 20
52.5
 30
0.0
  0
VERTEX
  8
LAYER4
 10
89.2
 20
51.2
 30
0.0
  0
VERTEX
  8
LAYER4
 10
92.0
 20
50.2
 30
0.0
  0
VERTEX
  8
LAYER4
 10
95.0
 20
50.0
 30
0.0
  0
VERTEX
  8
LAYER4
 10
95.0
 20
25.0
 30
0.0
  0
VERTEX
  8
LAYER4
 10
80.0
 20
25.0
 30
0.0
  0
SEQEND
  8
LAYER4
  0
POLYLINE
  8
LAYER4
 66
1
 70
0
 40
0.0
 41
0.0
  0
VERTEX
  8
LAYER4
 10
85.0
 20
65.0
 30
0.0
  0
VERTEX
  8
LAYER4
 10
85.2
 20
63.0
 30
0.0
  0
VERTEX
  8
LAYER4
 10
85.7
 20
61.2
 30
0.0
  0
VERTEX
  8
LAYER4
 10
86.7
 20
59.5
 30
0.0
  0
VERTEX
  8
LAYER4
 10
88.0
 20
58.0
 30
0.0
  0
VERTEX
  8
LAYER4
 10
89.5
 20
56.7
 30
0.0
  0
VERTEX
  8
LAYER4
 10
91.2
 20
55.7
 30
0.0
  0
VERTEX
  8
LAYER4
 10
93.0
 20
55.2
 30
0.0
  0
VERTEX
  8
LAYER4
 10
95.0
 20
55.0
 30
0.0
  0
VERTEX
  8
LAYER4
 10
97.0
 20
55.2
 30
0.0
  0
VERTEX
  8
LAYER4
 10
98.7
 20
55.7
 30
0.0
  0
VERTEX
  8
LAYER4
 10
100.5
 20
56.7
 30
0.0
  0
VERTEX
  8
LAYER4
 10
102.0
 20
58.0
 30
0.0
  0
VERTEX
  8
LAYER4
 10
103.2
 20
59.5
 30
0.0
  0
VERTEX
  8
LAYER4
 10
104.2
 20
61.2
 30
0.0
  0
VERTEX
  8
LAYER4
 10
104.7
 20
63.0
 30
0.0
  0
VERTEX
  8
LAYER4
 10
105.0
 20
65.0
 30
0.0
  0
VERTEX
  8
LAYER4
 10
104.7
 20
67.0
 30
0.0
  0
VERTEX
  8
LAYER4
 10
104.2
 20
68.7
 30
0.0
  0
VERTEX
  8
LAYER4
 10
103.2
 20
70.5
 30
0.0
  0
VERTEX
  8
LAYER4
 10
102.0
 20
72.0
 30
0.0
  0
VERTEX
  8
LAYER4
 10
100.5
 20
73.2
 30
0.0
  0
VERTEX
  8
LAYER4
 10
98.7
 20
74.2
 30
0.0
  0
VERTEX
  8
LAYER4
 10
97.0
 20
74.7
 30
0.0
  0
VERTEX
  8
LAYER4
 10
95.0
 20
75.0
 30
0.0
  0
VERTEX
  8
LAYER4
 10
93.0
 20
74.7
 30
0.0
  0
VERTEX
  8
LAYER4
 10
91.2
 20
74.2
 30
0.0
  0
VERTEX
  8
LAYER4
 10
89.5
 20
73.2
 30
0.0
  0
VERTEX
  8
LAYER4
 10
88.0
 20
72.0
 30
0.0
  0
VERTEX
  8
LAYER4
 10
86.7
 20
70.5
 30
0.0
  0
VERTEX
  8
LAYER4
 10
85.7
 20
68.7
 30
0.0
  0
VERTEX
  8
LAYER4
 10
85.2
 20
67.0
 30
0.0
  0
VERTEX
  8
LAYER4
 10
85.0
 20
65.0
 30
0.0
  0
SEQEND
  8
LAYER4
  0
POLYLINE
  8
LAYER4
 66
1
 70
0
 40
0.0
 41
0.0
  0
VERTEX
  8
LAYER4
 10
42.0
 20
25.0
 30
0.0
  0
VERTEX
  8
LAYER4
 10
42.0
 20
50.0
 30
0.0
  0
VERTEX
  8
LAYER4
 10
41.0
 20
50.2
 30
0.0
  0
VERTEX
  8
LAYER4
 10
39.2
 20
51.2
 30
0.0
  0
VERTEX
  8
LAYER4
 10
36.7
 20
52.5
 30
0.0
  0
VERTEX
  8
LAYER4
 10
34.5
 20
54.5
 30
0.0
  0
VERTEX
  8
LAYER4
 10
32.5
 20
56.7
 30
0.0
  0
VERTEX
  8
LAYER4
 10
31.2
 20
59.2
 30
0.0
  0
VERTEX
  8
LAYER4
 10
30.2
 20
62.0
 30
0.0
  0
VERTEX
  8
LAYER4
 10
30.0
 20
65.0
 30
0.0
  0
VERTEX
  8
LAYER4
 10
30.2
 20
68.0
 30
0.0
  0
VERTEX
  8
LAYER4
 10
31.2
 20
70.7
 30
0.0
  0
VERTEX
  8
LAYER4
 10
32.5
 20
73.2
 30
0.0
  0
VERTEX
  8
LAYER4
 10
34.5
 20
75.5
 30
0.0
  0
VERTEX
  8
LAYER4
 10
36.7
 20
77.5
 30
0.0
  0
VERTEX
  8
LAYER4
 10
39.2
 20
78.7
 30
0.0
  0
VERTEX
  8
LAYER4
 10
41.0
 20
79.7
 30
0.0
  0
VERTEX
  8
LAYER4
 10
42.0
 20
80.0
 30
0.0
  0
VERTEX
  8
LAYER4
 10
42.0
 20
85.0
 30
0.0
  0
VERTEX
  8
LAYER4
 10
41.0
 20
85.0
 30
0.0
  0
VERTEX
  8
LAYER4
 10
37.2
 20
83.5
 30
0.0
  0
VERTEX
  8
LAYER4
 10
34.0
 20
81.7
 30
0.0
  0
VERTEX
  8
LAYER4
 10
30.7
 20
79.2
 30
0.0
  0
VERTEX
  8
LAYER4
 10
28.2
 20
76.0
 30
0.0
  0
VERTEX
  8
LAYER4
 10
26.5
 20
72.7
 30
0.0
  0
VERTEX
  8
LAYER4
 10
25.5
 20
69.0
 30
0.0
  0
VERTEX
  8
LAYER4
 10
25.0
 20
65.0
 30
0.0
  0
VERTEX
  8
LAYER4
 10
25.0
 20
30.0
 30
0.0
  0
VERTEX
  8
LAYER4
 10
30.0
 20
25.0
 30
0.0
  0
VERTEX
  8
LAYER4
 10
42.0
 20
25.0
 30
0.0
  0
SEQEND
  8
LAYER4
  0
POLYLINE
  8
LAYER4
 66
1
 70
0
 40
0.0
 41
0.0
  0
VERTEX
  8
LAYER4
 10
48.0
 20
25.0
 30
0.0
  0
VERTEX
  8
LAYER4
 10
48.0
 20
50.0
 30
0.0
  0
VERTEX
  8
LAYER4
 10
49.0
 20
50.2
 30
0.0
  0
VERTEX
  8
LAYER4
 10
50.7
 20
51.2
 30
0.0
  0
VERTEX
  8
LAYER4
 10
53.2
 20
52.5
 30
0.0
  0
VERTEX
  8
LAYER4
 10
55.5
 20
54.5
 30
0.0
  0
VERTEX
  8
LAYER4
 10
57.5
 20
56.7
 30
0.0
  0
VERTEX
  8
LAYER4
 10
58.7
 20
59.2
 30
0.0
  0
VERTEX
  8
LAYER4
 10
59.7
 20
62.0
 30
0.0
  0
VERTEX
  8
LAYER4
 10
60.0
 20
65.0
 30
0.0
  0
VERTEX
  8
LAYER4
 10
59.7
 20
68.0
 30
0.0
  0
VERTEX
  8
LAYER4
 10
58.7
 20
70.7
 30
0.0
  0
VERTEX
  8
LAYER4
 10
57.5
 20
73.2
 30
0.0
  0
VERTEX
  8
LAYER4
 10
55.5
 20
75.5
 30
0.0
  0
VERTEX
  8
LAYER4
 10
53.2
 20
77.5
 30
0.0
  0
VERTEX
  8
LAYER4
 10
50.7
 20
78.7
 30
0.0
  0
VERTEX
  8
LAYER4
 10
49.0
 20
79.7
 30
0.0
  0
VERTEX
  8
LAYER4
 10
48.0
 20
80.0
 30
0.0
  0
VERTEX
  8
LAYER4
 10
48.0
 20
85.0
 30
0.0
  0
VERTEX
  8
LAYER4
 10
49.0
 20
85.0
 30
0.0
  0
VERTEX
  8
LAYER4
 10
52.7
 20
83.5
 30
0.0
  0
VERTEX
  8
LAYER4
 10
56.0
 20
81.7
 30
0.0
  0
VERTEX
  8
LAYER4
 10
59.2
 20
79.2
 30
0.0
  0
VERTEX
  8
LAYER4
 10
61.7
 20
76.0
 30
0.0
  0
VERTEX
  8
LAYER4
 10
63.5
 20
72.7
 30
0.0
  0
VERTEX
  8
LAYER4
 10
64.5
 20
69.0
 30
0.0
  0
VERTEX
  8
LAYER4
 10
65.0
 20
65.0
 30
0.0
  0
VERTEX
  8
LAYER4
 10
65.0
 20
30.0
 30
0.0
  0
VERTEX
  8
LAYER4
 10
60.0
 20
25.0
 30
0.0
  0
VERTEX
  8
LAYER4
 10
48.0
 20
25.0
 30
0.0
  0
SEQEND
  8
LAYER4
  0
POLYLINE
  8
LAYER8
 66
1
 70
0
 40
0.0
 41
0.0
  0
VERTEX
  8
LAYER8
 10
28.0
 20
65.0
 30
0.0
  0
VERTEX
  8
LAYER8
 10
28.2
 20
68.5
 30
0.0
  0
VERTEX
  8
LAYER8
 10
29.5
 20
71.5
 30
0.0
  0
VERTEX
  8
LAYER8
 10
30.7
 20
74.5
 30
0.0
  0
VERTEX
  8
LAYER8
 10
33.0
 20
77.0
 30
0.0
  0
VERTEX
  8
LAYER8
 10
35.5
 20
79.2
 30
0.0
  0
VERTEX
  8
LAYER8
 10
38.5
 20
80.5
 30
0.0
  0
VERTEX
  8
LAYER8
 10
41.5
 20
81.7
 30
0.0
  0
VERTEX
  8
LAYER8
 10
45.0
 20
82.0
 30
0.0
  0
VERTEX
  8
LAYER8
 10
48.5
 20
81.7
 30
0.0
  0
VERTEX
  8
LAYER8
 10
51.5
 20
80.5
 30
0.0
  0
VERTEX
  8
LAYER8
 10
54.5
 20
79.2
 30
0.0
  0
VERTEX
  8
LAYER8
 10
57.0
 20
77.0
 30
0.0
  0
VERTEX
  8
LAYER8
 10
59.2
 20
74.5
 30
0.0
  0
VERTEX
  8
LAYER8
 10
60.5
 20
71.5
 30
0.0
  0
VERTEX
  8
LAYER8
 10
61.7
 20
68.5
 30
0.0
  0
VERTEX
  8
LAYER8
 10
62.0
 20
65.0
 30
0.0
  0
VERTEX
  8
LAYER8
 10
61.7
 20
61.5
 30
0.0
  0
VERTEX
  8
LAYER8
 10
60.5
 20
58.5
 30
0.0
  0
VERTEX
  8
LAYER8
 10
59.2
 20
55.5
 30
0.0
  0
VERTEX
  8
LAYER8
 10
57.0
 20
53.0
 30
0.0
  0
VERTEX
  8
LAYER8
 10
54.5
 20
50.7
 30
0.0
  0
VERTEX
  8
LAYER8
 10
51.5
 20
49.5
 30
0.0
  0
VERTEX
  8
LAYER8
 10
48.5
 20
48.2
 30
0.0
  0
VERTEX
  8
LAYER8
 10
45.0
 20
48.0
 30
0.0
  0
VERTEX
  8
LAYER8
 10
41.5
 20
48.2
 30
0.0
  0
VERTEX
  8
LAYER8
 10
38.5
 20
49.5
 30
0.0
  0
VERTEX
  8
LAYER8
 10
35.5
 20
50.7
 30
0.0
  0
VERTEX
  8
LAYER8
 10
33.0
 20
53.0
 30
0.0
  0
VERTEX
  8
LAYER8
 10
30.7
 20
55.5
 30
0.0
  0
VERTEX
  8
LAYER8
 10
29.5
 20
58.5
 30
0.0
  0
VERTEX
  8
LAYER8
 10
28.2
 20
61.5
 30
0.0
  0
VERTEX
  8
LAYER8
 10
28.0
 20
65.0
 30
0.0
  0
SEQEND
  8
LAYER8
  0
POLYLINE
  8
LAYER8
 66
1
 70
0
 40
0.0
 41
0.0
  0
VERTEX
  8
LAYER8
 10
78.0
 20
65.0
 30
0.0
  0
VERTEX
  8
LAYER8
 10
78.2
 20
68.5
 30
0.0
  0
VERTEX
  8
LAYER8
 10
79.5
 20
71.5
 30
0.0
  0
VERTEX
  8
LAYER8
 10
80.7
 20
74.5
 30
0.0
  0
VERTEX
  8
LAYER8
 10
83.0
 20
77.0
 30
0.0
  0
VERTEX
  8
LAYER8
 10
85.5
 20
79.2
 30
0.0
  0
VERTEX
  8
LAYER8
 10
88.5
 20
80.5
 30
0.0
  0
VERTEX
  8
LAYER8
 10
91.5
 20
81.7
 30
0.0
  0
VERTEX
  8
LAYER8
 10
95.0
 20
82.0
 30
0.0
  0
VERTEX
  8
LAYER8
 10
98.5
 20
81.7
 30
0.0
  0
VERTEX
  8
LAYER8
 10
101.5
 20
80.5
 30
0.0
  0
VERTEX
  8
LAYER8
 10
104.5
 20
79.2
 30
0.0
  0
VERTEX
  8
LAYER8
 10
107.0
 20
77.0
 30
0.0
  0
VERTEX
  8
LAYER8
 10
109.2
 20
74.5
 30
0.0
  0
VERTEX
  8
LAYER8
 10
110.5
 20
71.5
 30
0.0
  0
VERTEX
  8
LAYER8
 10
111.7
 20
68.5
 30
0.0
  0
VERTEX
  8
LAYER8
 10
112.0
 20
65.0
 30
0.0
  0
VERTEX
  8
LAYER8
 10
111.7
 20
61.5
 30
0.0
  0
VERTEX
  8
LAYER8
 10
110.5
 20
58.5
 30
0.0
  0
VERTEX
  8
LAYER8
 10
109.2
 20
55.5
 30
0.0
  0
VERTEX
  8
LAYER8
 10
107.0
 20
53.0
 30
0.0
  0
VERTEX
  8
LAYER8
 10
104.5
 20
50.7
 30
0.0
  0
VERTEX
  8
LAYER8
 10
101.5
 20
49.5
 30
0.0
  0
VERTEX
  8
LAYER8
 10
98.5
 20
48.2
 30
0.0
  0
VERTEX
  8
LAYER8
 10
95.0
 20
48.0
 30
0.0
  0
VERTEX
  8
LAYER8
 10
91.5
 20
48.2
 30
0.0
  0
VERTEX
  8
LAYER8
 10
88.5
 20
49.5
 30
0.0
  0
VERTEX
  8
LAYER8
 10
85.5
 20
50.7
 30
0.0
  0
VERTEX
  8
LAYER8
 10
83.0
 20
53.0
 30
0.0
  0
VERTEX
  8
LAYER8
 10
80.7
 20
55.5
 30
0.0
  0
VERTEX
  8
LAYER8
 10
79.5
 20
58.5
 30
0.0
  0
VERTEX
  8
LAYER8
 10
78.2
 20
61.5
 30
0.0
  0
VERTEX
  8
LAYER8
 10
78.0
 20
65.0
 30
0.0
  0
SEQEND
  8
LAYER8
  0
POLYLINE
  8
LAYER8
 66
1
 70
0
 40
0.0
 41
0.0
  0
VERTEX
  8
LAYER8
 10
60.0
 20
70.0
 30
0.0
  0
VERTEX
  8
LAYER8
 10
80.0
 20
70.0
 30
0.0
  0
VERTEX
  8
LAYER8
 10
80.0
 20
60.0
 30
0.0
  0
VERTEX
  8
LAYER8
 10
60.0
 20
60.0
 30
0.0
  0
VERTEX
  8
LAYER8
 10
60.0
 20
70.0
 30
0.0
  0
SEQEND
  8
LAYER8
  0
TEXT
  8
LAYER61
 10
91.0
 20
30.0
 30
0.0
 40
3.0
  1
3C3
 50
0.0
  0
TEXT
  8
LAYER61
 10
34.0
 20
32.0
 30
0.0
 40
3.0
  1
1C1
 50
0.0
  0
TEXT
  8
LAYER61
 10
54.0
 20
32.0
 30
0.0
 40
3.0
  1
2C2
 50
0.0
  0
TEXT
  8
LAYER61
 10
68.0
 20
95.0
 30
0.0
 40
3.0
  1
4B
 50
0.0
  0
TEXT
  8
LAYER61
 10
70.0
 20
65.0
 30
0.0
 40
3.0
  1
5E
 50
0.0
  0
ENDBLK
  8
0
  0
BLOCK
  8
0
  2
R200K
 70
0
  3
R200K
 10
0.0
 20
0.0
 30
0.0
  0
POLYLINE
  8
LAYER4
 66
1
 70
0
 40
0.0
 41
0.0
  0
VERTEX
  8
LAYER4
 10
-6.0
 20
-8.0
 30
0.0
  0
VERTEX
  8
LAYER4
 10
5.0
 20
-8.0
 30
0.0
  0
VERTEX
  8
LAYER4
 10
5.0
 20
8.0
 30
0.0
  0
VERTEX
  8
LAYER4
 10
-6.0
 20
8.0
 30
0.0
  0
VERTEX
  8
LAYER4
 10
-6.0
 20
-8.0
 30
0.0
  0
SEQEND
  8
LAYER4
  0
POLYLINE
  8
LAYER4
 66
1
 70
0
 40
0.0
 41
0.0
  0
VERTEX
  8
LAYER4
 10
-160.0
 20
32.0
 30
0.0
  0
VERTEX
  8
LAYER4
 10
-149.0
 20
32.0
 30
0.0
  0
VERTEX
  8
LAYER4
 10
-149.0
 20
48.0
 30
0.0
  0
VERTEX
  8
LAYER4
 10
-160.0
 20
48.0
 30
0.0
  0
VERTEX
  8
LAYER4
 10
-160.0
 20
32.0
 30
0.0
  0
SEQEND
  8
LAYER4
  0
POLYLINE
  8
LAYER7
 66
1
 70
0
 40
0.0
 41
0.0
  0
VERTEX
  8
LAYER7
 10
-3.0
 20
-5.0
 30
0.0
  0
VERTEX
  8
LAYER7
 10
2.0
 20
-5.0
 30
0.0
  0
VERTEX
  8
LAYER7
 10
2.0
 20
5.0
 30
0.0
  0
VERTEX
  8
LAYER7
 10
-3.0
 20
5.0
 30
0.0
  0
VERTEX
  8
LAYER7
 10
-3.0
 20
-5.0
 30
0.0
  0
SEQEND
  8
LAYER7
  0
POLYLINE
  8
LAYER7
 66
1
 70
0
 40
0.0
 41
0.0
  0
VERTEX
  8
LAYER7
 10
-157.0
 20
35.0
 30
0.0
  0
VERTEX
  8
LAYER7
 10
-152.0
 20
35.0
 30
0.0
  0
VERTEX
  8
LAYER7
 10
-152.0
 20
45.0
 30
0.0
  0
VERTEX
  8
LAYER7
 10
-157.0
 20
45.0
 30
0.0
  0
VERTEX
  8
LAYER7
 10
-157.0
 20
35.0
 30
0.0
  0
SEQEND
  8
LAYER7
  0
POLYLINE
  8
LAYER8
 66
1
 70
0
 40
0.0
 41
0.0
  0
VERTEX
  8
LAYER8
 10
-5.0
 20
-7.0
 30
0.0
  0
VERTEX
  8
LAYER8
 10
4.0
 20
-7.0
 30
0.0
  0
VERTEX
  8
LAYER8
 10
4.0
 20
7.0
 30
0.0
  0
VERTEX
  8
LAYER8
 10
-5.0
 20
7.0
 30
0.0
  0
VERTEX
  8
LAYER8
 10
-5.0
 20
-7.0
 30
0.0
  0
SEQEND
  8
LAYER8
  0
POLYLINE
  8
LAYER8
 66
1
 70
0
 40
0.0
 41
0.0
  0
VERTEX
  8
LAYER8
 10
-159.0
 20
33.0
 30
0.0
  0
VERTEX
  8
LAYER8
 10
-150.0
 20
33.0
 30
0.0
  0
VERTEX
  8
LAYER8
 10
-150.0
 20
47.0
 30
0.0
  0
VERTEX
  8
LAYER8
 10
-159.0
 20
47.0
 30
0.0
  0
VERTEX
  8
LAYER8
 10
-159.0
 20
33.0
 30
0.0
  0
SEQEND
  8
LAYER8
  0
POLYLINE
  8
LAYER5
 66
1
 70
0
 40
6.0
 41
6.0
  0
VERTEX
  8
LAYER5
 10
-150.0
 20
40.0
 30
0.0
  0
VERTEX
  8
LAYER5
 10
-1.0
 20
40.0
 30
0.0
  0
VERTEX
  8
LAYER5
 10
-1.0
 20
20.0
 30
0.0
  0
VERTEX
  8
LAYER5
 10
-155.0
 20
20.0
 30
0.0
  0
VERTEX
  8
LAYER5
 10
-155.0
 20
0.0
 30
0.0
  0
VERTEX
  8
LAYER5
 10
-5.0
 20
0.0
 30
0.0
  0
SEQEND
  8
LAYER5
  0
TEXT
  8
LAYER61
 10
-155.0
 20
40.0
 30
0.0
 40
3.0
  1
1
 50
0.0
  0
TEXT
  8
LAYER61
 10
0.0
 20
0.0
 30
0.0
 40
3.0
  1
2
 50
0.0
  0
ENDBLK
  8
0
  0
BLOCK
  8
0
  2
R75K
 70
0
  3
R75K
 10
0.0
 20
0.0
 30
0.0
  0
POLYLINE
  8
LAYER4
 66
1
 70
0
 40
0.0
 41
0.0
  0
VERTEX
  8
LAYER4
 10
-5.0
 20
-8.0
 30
0.0
  0
VERTEX
  8
LAYER4
 10
6.0
 20
-8.0
 30
0.0
  0
VERTEX
  8
LAYER4
 10
6.0
 20
8.0
 30
0.0
  0
VERTEX
  8
LAYER4
 10
-5.0
 20
8.0
 30
0.0
  0
VERTEX
  8
LAYER4
 10
-5.0
 20
-8.0
 30
0.0
  0
SEQEND
  8
LAYER4
  0
POLYLINE
  8
LAYER4
 66
1
 70
0
 40
0.0
 41
0.0
  0
VERTEX
  8
LAYER4
 10
-5.0
 20
17.0
 30
0.0
  0
VERTEX
  8
LAYER4
 10
6.0
 20
17.0
 30
0.0
  0
VERTEX
  8
LAYER4
 10
6.0
 20
33.0
 30
0.0
  0
VERTEX
  8
LAYER4
 10
-5.0
 20
33.0
 30
0.0
  0
VERTEX
  8
LAYER4
 10
-5.0
 20
17.0
 30
0.0
  0
SEQEND
  8
LAYER4
  0
POLYLINE
  8
LAYER7
 66
1
 70
0
 40
0.0
 41
0.0
  0
VERTEX
  8
LAYER7
 10
-2.0
 20
-5.0
 30
0.0
  0
VERTEX
  8
LAYER7
 10
3.0
 20
-5.0
 30
0.0
  0
VERTEX
  8
LAYER7
 10
3.0
 20
5.0
 30
0.0
  0
VERTEX
  8
LAYER7
 10
-2.0
 20
5.0
 30
0.0
  0
VERTEX
  8
LAYER7
 10
-2.0
 20
-5.0
 30
0.0
  0
SEQEND
  8
LAYER7
  0
POLYLINE
  8
LAYER7
 66
1
 70
0
 40
0.0
 41
0.0
  0
VERTEX
  8
LAYER7
 10
-2.0
 20
20.0
 30
0.0
  0
VERTEX
  8
LAYER7
 10
3.0
 20
20.0
 30
0.0
  0
VERTEX
  8
LAYER7
 10
3.0
 20
30.0
 30
0.0
  0
VERTEX
  8
LAYER7
 10
-2.0
 20
30.0
 30
0.0
  0
VERTEX
  8
LAYER7
 10
-2.0
 20
20.0
 30
0.0
  0
SEQEND
  8
LAYER7
  0
POLYLINE
  8
LAYER8
 66
1
 70
0
 40
0.0
 41
0.0
  0
VERTEX
  8
LAYER8
 10
-4.0
 20
-7.0
 30
0.0
  0
VERTEX
  8
LAYER8
 10
5.0
 20
-7.0
 30
0.0
  0
VERTEX
  8
LAYER8
 10
5.0
 20
7.0
 30
0.0
  0
VERTEX
  8
LAYER8
 10
-4.0
 20
7.0
 30
0.0
  0
VERTEX
  8
LAYER8
 10
-4.0
 20
-7.0
 30
0.0
  0
SEQEND
  8
LAYER8
  0
POLYLINE
  8
LAYER8
 66
1
 70
0
 40
0.0
 41
0.0
  0
VERTEX
  8
LAYER8
 10
-4.0
 20
18.0
 30
0.0
  0
VERTEX
  8
LAYER8
 10
5.0
 20
18.0
 30
0.0
  0
VERTEX
  8
LAYER8
 10
5.0
 20
32.0
 30
0.0
  0
VERTEX
  8
LAYER8
 10
-4.0
 20
32.0
 30
0.0
  0
VERTEX
  8
LAYER8
 10
-4.0
 20
18.0
 30
0.0
  0
SEQEND
  8
LAYER8
  0
POLYLINE
  8
LAYER5
 66
1
 70
0
 40
6.0
 41
6.0
  0
VERTEX
  8
LAYER5
 10
5.0
 20
25.0
 30
0.0
  0
VERTEX
  8
LAYER5
 10
86.0
 20
25.0
 30
0.0
  0
VERTEX
  8
LAYER5
 10
86.0
 20
0.0
 30
0.0
  0
VERTEX
  8
LAYER5
 10
5.0
 20
0.0
 30
0.0
  0
SEQEND
  8
LAYER5
  0
TEXT
  8
LAYER61
 10
0.0
 20
0.0
 30
0.0
 40
3.0
  1
1
 50
0.0
  0
TEXT
  8
LAYER61
 10
0.0
 20
25.0
 30
0.0
 40
3.0
  1
2
 50
0.0
  0
ENDBLK
  8
0
  0
BLOCK
  8
0
  2
SPNP1
 70
0
  3
SPNP1
 10
0.0
 20
0.0
 30
0.0
  0
POLYLINE
  8
LAYER1
 66
1
 70
0
 40
0.0
 41
0.0
  0
VERTEX
  8
LAYER1
 10
20.0
 20
0.0
 30
0.0
  0
VERTEX
  8
LAYER1
 10
130.0
 20
0.0
 30
0.0
  0
VERTEX
  8
LAYER1
 10
130.0
 20
95.0
 30
0.0
  0
VERTEX
  8
LAYER1
 10
20.0
 20
95.0
 30
0.0
  0
VERTEX
  8
LAYER1
 10
20.0
 20
0.0
 30
0.0
  0
SEQEND
  8
LAYER1
  0
POLYLINE
  8
LAYER2
 66
1
 70
0
 40
0.0
 41
0.0
  0
VERTEX
  8
LAYER2
 10
140.0
 20
-20.0
 30
0.0
  0
VERTEX
  8
LAYER2
 10
150.0
 20
-20.0
 30
0.0
  0
VERTEX
  8
LAYER2
 10
150.0
 20
115.0
 30
0.0
  0
VERTEX
  8
LAYER2
 10
140.0
 20
115.0
 30
0.0
  0
VERTEX
  8
LAYER2
 10
140.0
 20
-20.0
 30
0.0
  0
SEQEND
  8
LAYER2
  0
POLYLINE
  8
LAYER2
 66
1
 70
0
 40
0.0
 41
0.0
  0
VERTEX
  8
LAYER2
 10
10.0
 20
-20.0
 30
0.0
  0
VERTEX
  8
LAYER2
 10
140.0
 20
-20.0
 30
0.0
  0
VERTEX
  8
LAYER2
 10
140.0
 20
-10.0
 30
0.0
  0
VERTEX
  8
LAYER2
 10
10.0
 20
-10.0
 30
0.0
  0
VERTEX
  8
LAYER2
 10
10.0
 20
-20.0
 30
0.0
  0
SEQEND
  8
LAYER2
  0
POLYLINE
  8
LAYER2
 66
1
 70
0
 40
0.0
 41
0.0
  0
VERTEX
  8
LAYER2
 10
0.0
 20
-20.0
 30
0.0
  0
VERTEX
  8
LAYER2
 10
10.0
 20
-20.0
 30
0.0
  0
VERTEX
  8
LAYER2
 10
10.0
 20
115.0
 30
0.0
  0
VERTEX
  8
LAYER2
 10
0.0
 20
115.0
 30
0.0
  0
VERTEX
  8
LAYER2
 10
0.0
 20
-20.0
 30
0.0
  0
SEQEND
  8
LAYER2
  0
POLYLINE
  8
LAYER2
 66
1
 70
0
 40
0.0
 41
0.0
  0
VERTEX
  8
LAYER2
 10
10.0
 20
105.0
 30
0.0
  0
VERTEX
  8
LAYER2
 10
140.0
 20
105.0
 30
0.0
  0
VERTEX
  8
LAYER2
 10
140.0
 20
115.0
 30
0.0
  0
VERTEX
  8
LAYER2
 10
10.0
 20
115.0
 30
0.0
  0
VERTEX
  8
LAYER2
 10
10.0
 20
105.0
 30
0.0
  0
SEQEND
  8
LAYER2
  0
POLYLINE
  8
LAYER4
 66
1
 70
0
 40
0.0
 41
0.0
  0
VERTEX
  8
LAYER4
 10
30.0
 20
20.0
 30
0.0
  0
VERTEX
  8
LAYER4
 10
120.0
 20
20.0
 30
0.0
  0
VERTEX
  8
LAYER4
 10
120.0
 20
35.0
 30
0.0
  0
VERTEX
  8
LAYER4
 10
30.0
 20
35.0
 30
0.0
  0
VERTEX
  8
LAYER4
 10
30.0
 20
20.0
 30
0.0
  0
SEQEND
  8
LAYER4
  0
POLYLINE
  8
LAYER4
 66
1
 70
0
 40
0.0
 41
0.0
  0
VERTEX
  8
LAYER4
 10
30.0
 20
60.0
 30
0.0
  0
VERTEX
  8
LAYER4
 10
120.0
 20
60.0
 30
0.0
  0
VERTEX
  8
LAYER4
 10
120.0
 20
75.0
 30
0.0
  0
VERTEX
  8
LAYER4
 10
30.0
 20
75.0
 30
0.0
  0
VERTEX
  8
LAYER4
 10
30.0
 20
60.0
 30
0.0
  0
SEQEND
  8
LAYER4
  0
POLYLINE
  8
LAYER6
 66
1
 70
0
 40
0.0
 41
0.0
  0
VERTEX
  8
LAYER6
 10
30.0
 20
2.5
 30
0.0
  0
VERTEX
  8
LAYER6
 10
120.0
 20
2.5
 30
0.0
  0
VERTEX
  8
LAYER6
 10
120.0
 20
12.5
 30
0.0
  0
VERTEX
  8
LAYER6
 10
30.0
 20
12.5
 30
0.0
  0
VERTEX
  8
LAYER6
 10
30.0
 20
2.5
 30
0.0
  0
SEQEND
  8
LAYER6
  0
POLYLINE
  8
LAYER6
 66
1
 70
0
 40
0.0
 41
0.0
  0
VERTEX
  8
LAYER6
 10
30.0
 20
42.5
 30
0.0
  0
VERTEX
  8
LAYER6
 10
120.0
 20
42.5
 30
0.0
  0
VERTEX
  8
LAYER6
 10
120.0
 20
52.5
 30
0.0
  0
VERTEX
  8
LAYER6
 10
30.0
 20
52.5
 30
0.0
  0
VERTEX
  8
LAYER6
 10
30.0
 20
42.5
 30
0.0
  0
SEQEND
  8
LAYER6
  0
POLYLINE
  8
LAYER6
 66
1
 70
0
 40
0.0
 41
0.0
  0
VERTEX
  8
LAYER6
 10
30.0
 20
82.5
 30
0.0
  0
VERTEX
  8
LAYER6
 10
120.0
 20
82.5
 30
0.0
  0
VERTEX
  8
LAYER6
 10
120.0
 20
92.5
 30
0.0
  0
VERTEX
  8
LAYER6
 10
30.0
 20
92.5
 30
0.0
  0
VERTEX
  8
LAYER6
 10
30.0
 20
82.5
 30
0.0
  0
SEQEND
  8
LAYER6
  0
POLYLINE
  8
LAYER7
 66
1
 70
0
 40
0.0
 41
0.0
  0
VERTEX
  8
LAYER7
 10
35.0
 20
5.0
 30
0.0
  0
VERTEX
  8
LAYER7
 10
115.0
 20
5.0
 30
0.0
  0
VERTEX
  8
LAYER7
 10
115.0
 20
10.0
 30
0.0
  0
VERTEX
  8
LAYER7
 10
35.0
 20
10.0
 30
0.0
  0
VERTEX
  8
LAYER7
 10
35.0
 20
5.0
 30
0.0
  0
SEQEND
  8
LAYER7
  0
POLYLINE
  8
LAYER7
 66
1
 70
0
 40
0.0
 41
0.0
  0
VERTEX
  8
LAYER7
 10
35.0
 20
25.0
 30
0.0
  0
VERTEX
  8
LAYER7
 10
115.0
 20
25.0
 30
0.0
  0
VERTEX
  8
LAYER7
 10
115.0
 20
30.0
 30
0.0
  0
VERTEX
  8
LAYER7
 10
35.0
 20
30.0
 30
0.0
  0
VERTEX
  8
LAYER7
 10
35.0
 20
25.0
 30
0.0
  0
SEQEND
  8
LAYER7
  0
POLYLINE
  8
LAYER7
 66
1
 70
0
 40
0.0
 41
0.0
  0
VERTEX
  8
LAYER7
 10
35.0
 20
45.0
 30
0.0
  0
VERTEX
  8
LAYER7
 10
115.0
 20
45.0
 30
0.0
  0
VERTEX
  8
LAYER7
 10
115.0
 20
50.0
 30
0.0
  0
VERTEX
  8
LAYER7
 10
35.0
 20
50.0
 30
0.0
  0
VERTEX
  8
LAYER7
 10
35.0
 20
45.0
 30
0.0
  0
SEQEND
  8
LAYER7
  0
POLYLINE
  8
LAYER7
 66
1
 70
0
 40
0.0
 41
0.0
  0
VERTEX
  8
LAYER7
 10
35.0
 20
65.0
 30
0.0
  0
VERTEX
  8
LAYER7
 10
115.0
 20
65.0
 30
0.0
  0
VERTEX
  8
LAYER7
 10
115.0
 20
70.0
 30
0.0
  0
VERTEX
  8
LAYER7
 10
35.0
 20
70.0
 30
0.0
  0
VERTEX
  8
LAYER7
 10
35.0
 20
65.0
 30
0.0
  0
SEQEND
  8
LAYER7
  0
POLYLINE
  8
LAYER7
 66
1
 70
0
 40
0.0
 41
0.0
  0
VERTEX
  8
LAYER7
 10
35.0
 20
85.0
 30
0.0
  0
VERTEX
  8
LAYER7
 10
115.0
 20
85.0
 30
0.0
  0
VERTEX
  8
LAYER7
 10
115.0
 20
90.0
 30
0.0
  0
VERTEX
  8
LAYER7
 10
35.0
 20
90.0
 30
0.0
  0
VERTEX
  8
LAYER7
 10
35.0
 20
85.0
 30
0.0
  0
SEQEND
  8
LAYER7
  0
POLYLINE
  8
LAYER8
 66
1
 70
0
 40
0.0
 41
0.0
  0
VERTEX
  8
LAYER8
 10
33.0
 20
3.0
 30
0.0
  0
VERTEX
  8
LAYER8
 10
117.0
 20
3.0
 30
0.0
  0
VERTEX
  8
LAYER8
 10
117.0
 20
12.0
 30
0.0
  0
VERTEX
  8
LAYER8
 10
33.0
 20
12.0
 30
0.0
  0
VERTEX
  8
LAYER8
 10
33.0
 20
3.0
 30
0.0
  0
SEQEND
  8
LAYER8
  0
POLYLINE
  8
LAYER8
 66
1
 70
0
 40
0.0
 41
0.0
  0
VERTEX
  8
LAYER8
 10
33.0
 20
23.0
 30
0.0
  0
VERTEX
  8
LAYER8
 10
117.0
 20
23.0
 30
0.0
  0
VERTEX
  8
LAYER8
 10
117.0
 20
32.0
 30
0.0
  0
VERTEX
  8
LAYER8
 10
33.0
 20
32.0
 30
0.0
  0
VERTEX
  8
LAYER8
 10
33.0
 20
23.0
 30
0.0
  0
SEQEND
  8
LAYER8
  0
POLYLINE
  8
LAYER8
 66
1
 70
0
 40
0.0
 41
0.0
  0
VERTEX
  8
LAYER8
 10
33.0
 20
43.0
 30
0.0
  0
VERTEX
  8
LAYER8
 10
117.0
 20
43.0
 30
0.0
  0
VERTEX
  8
LAYER8
 10
117.0
 20
52.0
 30
0.0
  0
VERTEX
  8
LAYER8
 10
33.0
 20
52.0
 30
0.0
  0
VERTEX
  8
LAYER8
 10
33.0
 20
43.0
 30
0.0
  0
SEQEND
  8
LAYER8
  0
POLYLINE
  8
LAYER8
 66
1
 70
0
 40
0.0
 41
0.0
  0
VERTEX
  8
LAYER8
 10
33.0
 20
63.0
 30
0.0
  0
VERTEX
  8
LAYER8
 10
117.0
 20
63.0
 30
0.0
  0
VERTEX
  8
LAYER8
 10
117.0
 20
72.0
 30
0.0
  0
VERTEX
  8
LAYER8
 10
33.0
 20
72.0
 30
0.0
  0
VERTEX
  8
LAYER8
 10
33.0
 20
63.0
 30
0.0
  0
SEQEND
  8
LAYER8
  0
POLYLINE
  8
LAYER8
 66
1
 70
0
 40
0.0
 41
0.0
  0
VERTEX
  8
LAYER8
 10
33.0
 20
83.0
 30
0.0
  0
VERTEX
  8
LAYER8
 10
117.0
 20
83.0
 30
0.0
  0
VERTEX
  8
LAYER8
 10
117.0
 20
92.0
 30
0.0
  0
VERTEX
  8
LAYER8
 10
33.0
 20
92.0
 30
0.0
  0
VERTEX
  8
LAYER8
 10
33.0
 20
83.0
 30
0.0
  0
SEQEND
  8
LAYER8
  0
POLYLINE
  8
LAYER8
 66
1
 70
0
 40
0.0
 41
0.0
  0
VERTEX
  8
LAYER8
 10
117.0
 20
72.0
 30
0.0
  0
VERTEX
  8
LAYER8
 10
140.0
 20
72.0
 30
0.0
  0
VERTEX
  8
LAYER8
 10
140.0
 20
23.0
 30
0.0
  0
VERTEX
  8
LAYER8
 10
117.0
 20
23.0
 30
0.0
  0
VERTEX
  8
LAYER8
 10
117.0
 20
32.0
 30
0.0
  0
VERTEX
  8
LAYER8
 10
130.0
 20
32.0
 30
0.0
  0
VERTEX
  8
LAYER8
 10
130.0
 20
63.0
 30
0.0
  0
VERTEX
  8
LAYER8
 10
117.0
 20
63.0
 30
0.0
  0
VERTEX
  8
LAYER8
 10
117.0
 20
72.0
 30
0.0
  0
SEQEND
  8
LAYER8
  0
POLYLINE
  8
LAYER8
 66
1
 70
0
 40
0.0
 41
0.0
  0
VERTEX
  8
LAYER8
 10
33.0
 20
92.0
 30
0.0
  0
VERTEX
  8
LAYER8
 10
10.0
 20
92.0
 30
0.0
  0
VERTEX
  8
LAYER8
 10
10.0
 20
3.0
 30
0.0
  0
VERTEX
  8
LAYER8
 10
33.0
 20
3.0
 30
0.0
  0
VERTEX
  8
LAYER8
 10
33.0
 20
12.0
 30
0.0
  0
VERTEX
  8
LAYER8
 10
20.0
 20
12.0
 30
0.0
  0
VERTEX
  8
LAYER8
 10
20.0
 20
43.0
 30
0.0
  0
VERTEX
  8
LAYER8
 10
33.0
 20
43.0
 30
0.0
  0
VERTEX
  8
LAYER8
 10
33.0
 20
52.0
 30
0.0
  0
VERTEX
  8
LAYER8
 10
20.0
 20
52.0
 30
0.0
  0
VERTEX
  8
LAYER8
 10
20.0
 20
83.0
 30
0.0
  0
VERTEX
  8
LAYER8
 10
33.0
 20
83.0
 30
0.0
  0
VERTEX
  8
LAYER8
 10
33.0
 20
92.0
 30
0.0
  0
SEQEND
  8
LAYER8
  0
TEXT
  8
LAYER61
 10
135.0
 20
46.0
 30
0.0
 40
3.0
  1
3E
 50
0.0
  0
TEXT
  8
LAYER61
 10
70.0
 20
110.0
 30
0.0
 40
3.0
  1
1C
 50
0.0
  0
TEXT
  8
LAYER61
 10
71.0
 20
47.0
 30
0.0
 40
3.0
  1
2B
 50
0.0
  0
ENDBLK
  8
0
  0
BLOCK
  8
0
  2
TUBNC1
 70
0
  3
TUBNC1
 10
0.0
 20
0.0
 30
0.0
  0
POLYLINE
  8
LAYER6
 66
1
 70
0
 40
0.0
 41
0.0
  0
VERTEX
  8
LAYER6
 10
0.0
 20
0.0
 30
0.0
  0
VERTEX
  8
LAYER6
 10
22.0
 20
0.0
 30
0.0
  0
VERTEX
  8
LAYER6
 10
22.0
 20
15.0
 30
0.0
  0
VERTEX
  8
LAYER6
 10
0.0
 20
15.0
 30
0.0
  0
VERTEX
  8
LAYER6
 10
0.0
 20
0.0
 30
0.0
  0
SEQEND
  8
LAYER6
  0
POLYLINE
  8
LAYER7
 66
1
 70
0
 40
0.0
 41
0.0
  0
VERTEX
  8
LAYER7
 10
5.0
 20
5.0
 30
0.0
  0
VERTEX
  8
LAYER7
 10
17.0
 20
5.0
 30
0.0
  0
VERTEX
  8
LAYER7
 10
17.0
 20
10.0
 30
0.0
  0
VERTEX
  8
LAYER7
 10
5.0
 20
10.0
 30
0.0
  0
VERTEX
  8
LAYER7
 10
5.0
 20
5.0
 30
0.0
  0
SEQEND
  8
LAYER7
  0
POLYLINE
  8
LAYER8
 66
1
 70
0
 40
0.0
 41
0.0
  0
VERTEX
  8
LAYER8
 10
3.0
 20
3.0
 30
0.0
  0
VERTEX
  8
LAYER8
 10
19.0
 20
3.0
 30
0.0
  0
VERTEX
  8
LAYER8
 10
19.0
 20
12.0
 30
0.0
  0
VERTEX
  8
LAYER8
 10
3.0
 20
12.0
 30
0.0
  0
VERTEX
  8
LAYER8
 10
3.0
 20
3.0
 30
0.0
  0
SEQEND
  8
LAYER8
  0
ENDBLK
  8
0
  0
BLOCK
  8
0
  2
TUBNC2
 70
0
  3
TUBNC2
 10
0.0
 20
0.0
 30
0.0
  0
POLYLINE
  8
LAYER3
 66
1
 70
0
 40
0.0
 41
0.0
  0
VERTEX
  8
LAYER3
 10
4.0
 20
4.0
 30
0.0
  0
VERTEX
  8
LAYER3
 10
21.0
 20
4.0
 30
0.0
  0
VERTEX
  8
LAYER3
 10
21.0
 20
11.0
 30
0.0
  0
VERTEX
  8
LAYER3
 10
4.0
 20
11.0
 30
0.0
  0
VERTEX
  8
LAYER3
 10
4.0
 20
4.0
 30
0.0
  0
SEQEND
  8
LAYER3
  0
POLYLINE
  8
LAYER6
 66
1
 70
0
 40
0.0
 41
0.0
  0
VERTEX
  8
LAYER6
 10
0.0
 20
0.0
 30
0.0
  0
VERTEX
  8
LAYER6
 10
25.0
 20
0.0
 30
0.0
  0
VERTEX
  8
LAYER6
 10
25.0
 20
15.0
 30
0.0
  0
VERTEX
  8
LAYER6
 10
0.0
 20
15.0
 30
0.0
  0
VERTEX
  8
LAYER6
 10
0.0
 20
0.0
 30
0.0
  0
SEQEND
  8
LAYER6
  0
POLYLINE
  8
LAYER6
 66
1
 70
0
 40
0.0
 41
0.0
  0
VERTEX
  8
LAYER6
 10
5.0
 20
5.0
 30
0.0
  0
VERTEX
  8
LAYER6
 10
20.0
 20
5.0
 30
0.0
  0
VERTEX
  8
LAYER6
 10
20.0
 20
10.0
 30
0.0
  0
VERTEX
  8
LAYER6
 10
5.0
 20
10.0
 30
0.0
  0
VERTEX
  8
LAYER6
 10
5.0
 20
5.0
 30
0.0
  0
SEQEND
  8
LAYER6
  0
POLYLINE
  8
LAYER8
 66
1
 70
0
 40
0.0
 41
0.0
  0
VERTEX
  8
LAYER8
 10
3.0
 20
3.0
 30
0.0
  0
VERTEX
  8
LAYER8
 10
22.0
 20
3.0
 30
0.0
  0
VERTEX
  8
LAYER8
 10
22.0
 20
12.0
 30
0.0
  0
VERTEX
  8
LAYER8
 10
3.0
 20
12.0
 30
0.0
  0
VERTEX
  8
LAYER8
 10
3.0
 20
3.0
 30
0.0
  0
SEQEND
  8
LAYER8
  0
ENDBLK
  8
0
  0
BLOCK
  8
0
  2
TUNNEL
 70
0
  3
TUNNEL
 10
0.0
 20
0.0
 30
0.0
  0
POLYLINE
  8
LAYER4
 66
1
 70
0
 40
0.0
 41
0.0
  0
VERTEX
  8
LAYER4
 10
-6.0
 20
-8.0
 30
0.0
  0
VERTEX
  8
LAYER4
 10
44.0
 20
-8.0
 30
0.0
  0
VERTEX
  8
LAYER4
 10
44.0
 20
8.0
 30
0.0
  0
VERTEX
  8
LAYER4
 10
-6.0
 20
8.0
 30
0.0
  0
VERTEX
  8
LAYER4
 10
-6.0
 20
-8.0
 30
0.0
  0
SEQEND
  8
LAYER4
  0
POLYLINE
  8
LAYER7
 66
1
 70
0
 40
0.0
 41
0.0
  0
VERTEX
  8
LAYER7
 10
-3.0
 20
-5.0
 30
0.0
  0
VERTEX
  8
LAYER7
 10
2.0
 20
-5.0
 30
0.0
  0
VERTEX
  8
LAYER7
 10
2.0
 20
5.0
 30
0.0
  0
VERTEX
  8
LAYER7
 10
-3.0
 20
5.0
 30
0.0
  0
VERTEX
  8
LAYER7
 10
-3.0
 20
-5.0
 30
0.0
  0
SEQEND
  8
LAYER7
  0
POLYLINE
  8
LAYER7
 66
1
 70
0
 40
0.0
 41
0.0
  0
VERTEX
  8
LAYER7
 10
36.0
 20
-5.0
 30
0.0
  0
VERTEX
  8
LAYER7
 10
41.0
 20
-5.0
 30
0.0
  0
VERTEX
  8
LAYER7
 10
41.0
 20
5.0
 30
0.0
  0
VERTEX
  8
LAYER7
 10
36.0
 20
5.0
 30
0.0
  0
VERTEX
  8
LAYER7
 10
36.0
 20
-5.0
 30
0.0
  0
SEQEND
  8
LAYER7
  0
POLYLINE
  8
LAYER8
 66
1
 70
0
 40
0.0
 41
0.0
  0
VERTEX
  8
LAYER8
 10
-5.0
 20
-7.0
 30
0.0
  0
VERTEX
  8
LAYER8
 10
4.0
 20
-7.0
 30
0.0
  0
VERTEX
  8
LAYER8
 10
4.0
 20
7.0
 30
0.0
  0
VERTEX
  8
LAYER8
 10
-5.0
 20
7.0
 30
0.0
  0
VERTEX
  8
LAYER8
 10
-5.0
 20
-7.0
 30
0.0
  0
SEQEND
  8
LAYER8
  0
POLYLINE
  8
LAYER8
 66
1
 70
0
 40
0.0
 41
0.0
  0
VERTEX
  8
LAYER8
 10
34.0
 20
-7.0
 30
0.0
  0
VERTEX
  8
LAYER8
 10
43.0
 20
-7.0
 30
0.0
  0
VERTEX
  8
LAYER8
 10
43.0
 20
7.0
 30
0.0
  0
VERTEX
  8
LAYER8
 10
34.0
 20
7.0
 30
0.0
  0
VERTEX
  8
LAYER8
 10
34.0
 20
-7.0
 30
0.0
  0
SEQEND
  8
LAYER8
  0
TEXT
  8
LAYER61
 10
0.0
 20
0.0
 30
0.0
 40
3.0
  1
1
 50
0.0
  0
TEXT
  8
LAYER61
 10
40.0
 20
0.0
 30
0.0
 40
3.0
  1
2
 50
0.0
  0
ENDBLK
  8
0
  0
ENDSEC
  0
SECTION
  2
ENTITIES
  0
INSERT
  8
0
  2
NPN1
 10
195.0
 20
245.0
 30
0.
 50
0.0
  0
INSERT
  8
0
  2
NPN1
 10
115.0
 20
245.0
 30
0.
 50
0.0
  0
INSERT
  8
0
  2
NPN1
 10
275.0
 20
245.0
 30
0.
 50
0.0
  0
INSERT
  8
0
  2
NPN1
 10
355.0
 20
245.0
 30
0.
 50
0.0
  0
INSERT
  8
0
  2
NPN1
 10
525.0
 20
360.0
 30
0.
 50
0.0
  0
INSERT
  8
0
  2
NPN1NI
 10
275.0
 20
360.0
 30
0.
 50
0.0
  0
INSERT
  8
0
  2
NPN2
 10
605.0
 20
390.0
 30
0.
 50
0.0
  0
INSERT
  8
0
  2
NPN2
 10
435.0
 20
245.0
 30
0.
 50
0.0
  0
INSERT
  8
0
  2
PNP1
 10
115.0
 20
360.0
 30
0.
 50
0.0
  0
INSERT
  8
0
  2
PNP1
 10
195.0
 20
360.0
 30
0.
 50
0.0
  0
INSERT
  8
0
  2
PSRC1
 10
225.0
 20
465.0
 30
0.
 50
0.0
  0
INSERT
  8
0
  2
R200K
 10
560.0
 20
510.0
 30
0.
 50
0.0
  0
INSERT
  8
0
  2
R75K
 10
485.0
 20
390.0
 30
0.
 41
-1.0
 50
0.0
  0
INSERT
  8
0
  2
R75K
 10
485.0
 20
435.0
 30
0.
 41
-1.0
 50
0.0
  0
INSERT
  8
0
  2
SPNP1
 10
605.0
 20
275.0
 30
0.
 50
0.0
  0
INSERT
  8
0
  2
TUBNC1
 10
190.0
 20
550.0
 30
0.
 50
0.0
  0
INSERT
  8
0
  2
TUBNC2
 10
605.0
 20
520.0
 30
0.
 50
0.0
  0
INSERT
  8
0
  2
TUNNEL
 10
195.0
 20
534.0
 30
0.
 50
270.0
  0
INSERT
  8
0
  2
TUNNEL
 10
670.0
 20
555.0
 30
0.
 50
180.0
  0
INSERT
  8
0
  2
TUNNEL
 10
150.0
 20
534.0
 30
0.
 50
270.0
  0
POLYLINE
  8
LAYER4
 66
1
 70
0
 40
0.0
 41
0.0
  0
VERTEX
  8
LAYER4
 10
0.0
 20
0.0
 30
0.0
  0
VERTEX
  8
LAYER4
 10
875.0
 20
0.0
 30
0.0
  0
VERTEX
  8
LAYER4
 10
875.0
 20
75.0
 30
0.0
  0
VERTEX
  8
LAYER4
 10
0.0
 20
75.0
 30
0.0
  0
VERTEX
  8
LAYER4
 10
0.0
 20
0.0
 30
0.0
  0
SEQEND
  8
LAYER4
  0
POLYLINE
  8
LAYER4
 66
1
 70
0
 40
0.0
 41
0.0
  0
VERTEX
  8
LAYER4
 10
0.0
 20
75.0
 30
0.0
  0
VERTEX
  8
LAYER4
 10
75.0
 20
75.0
 30
0.0
  0
VERTEX
  8
LAYER4
 10
75.0
 20
750.0
 30
0.0
  0
VERTEX
  8
LAYER4
 10
0.0
 20
750.0
 30
0.0
  0
VERTEX
  8
LAYER4
 10
0.0
 20
75.0
 30
0.0
  0
SEQEND
  8
LAYER4
  0
POLYLINE
  8
LAYER7
 66
1
 70
0
 40
0.0
 41
0.0
  0
VERTEX
  8
LAYER7
 10
0.0
 20
0.0
 30
0.0
  0
VERTEX
  8
LAYER7
 10
875.0
 20
0.0
 30
0.0
  0
VERTEX
  8
LAYER7
 10
875.0
 20
75.0
 30
0.0
  0
VERTEX
  8
LAYER7
 10
0.0
 20
75.0
 30
0.0
  0
VERTEX
  8
LAYER7
 10
0.0
 20
0.0
 30
0.0
  0
SEQEND
  8
LAYER7
  0
POLYLINE
  8
LAYER7
 66
1
 70
0
 40
0.0
 41
0.0
  0
VERTEX
  8
LAYER7
 10
0.0
 20
75.0
 30
0.0
  0
VERTEX
  8
LAYER7
 10
75.0
 20
75.0
 30
0.0
  0
VERTEX
  8
LAYER7
 10
75.0
 20
750.0
 30
0.0
  0
VERTEX
  8
LAYER7
 10
0.0
 20
750.0
 30
0.0
  0
VERTEX
  8
LAYER7
 10
0.0
 20
75.0
 30
0.0
  0
SEQEND
  8
LAYER7
  0
POLYLINE
  8
LAYER8
 66
1
 70
0
 40
0.0
 41
0.0
  0
VERTEX
  8
LAYER8
 10
125.0
 20
100.0
 30
0.0
  0
VERTEX
  8
LAYER8
 10
225.0
 20
100.0
 30
0.0
  0
VERTEX
  8
LAYER8
 10
225.0
 20
200.0
 30
0.0
  0
VERTEX
  8
LAYER8
 10
125.0
 20
200.0
 30
0.0
  0
VERTEX
  8
LAYER8
 10
125.0
 20
100.0
 30
0.0
  0
SEQEND
  8
LAYER8
  0
POLYLINE
  8
LAYER8
 66
1
 70
0
 40
0.0
 41
0.0
  0
VERTEX
  8
LAYER8
 10
375.0
 20
100.0
 30
0.0
  0
VERTEX
  8
LAYER8
 10
475.0
 20
100.0
 30
0.0
  0
VERTEX
  8
LAYER8
 10
475.0
 20
200.0
 30
0.0
  0
VERTEX
  8
LAYER8
 10
375.0
 20
200.0
 30
0.0
  0
VERTEX
  8
LAYER8
 10
375.0
 20
100.0
 30
0.0
  0
SEQEND
  8
LAYER8
  0
POLYLINE
  8
LAYER8
 66
1
 70
0
 40
0.0
 41
0.0
  0
VERTEX
  8
LAYER8
 10
625.0
 20
100.0
 30
0.0
  0
VERTEX
  8
LAYER8
 10
725.0
 20
100.0
 30
0.0
  0
VERTEX
  8
LAYER8
 10
725.0
 20
200.0
 30
0.0
  0
VERTEX
  8
LAYER8
 10
625.0
 20
200.0
 30
0.0
  0
VERTEX
  8
LAYER8
 10
625.0
 20
100.0
 30
0.0
  0
SEQEND
  8
LAYER8
  0
POLYLINE
  8
LAYER4
 66
1
 70
0
 40
0.0
 41
0.0
  0
VERTEX
  8
LAYER4
 10
800.0
 20
75.0
 30
0.0
  0
VERTEX
  8
LAYER4
 10
875.0
 20
75.0
 30
0.0
  0
VERTEX
  8
LAYER4
 10
875.0
 20
750.0
 30
0.0
  0
VERTEX
  8
LAYER4
 10
800.0
 20
750.0
 30
0.0
  0
VERTEX
  8
LAYER4
 10
800.0
 20
75.0
 30
0.0
  0
SEQEND
  8
LAYER4
  0
POLYLINE
  8
LAYER7
 66
1
 70
0
 40
0.0
 41
0.0
  0
VERTEX
  8
LAYER7
 10
800.0
 20
75.0
 30
0.0
  0
VERTEX
  8
LAYER7
 10
875.0
 20
75.0
 30
0.0
  0
VERTEX
  8
LAYER7
 10
875.0
 20
750.0
 30
0.0
  0
VERTEX
  8
LAYER7
 10
800.0
 20
750.0
 30
0.0
  0
VERTEX
  8
LAYER7
 10
800.0
 20
75.0
 30
0.0
  0
SEQEND
  8
LAYER7
  0
POLYLINE
  8
LAYER2
 66
1
 70
0
 40
0.0
 41
0.0
  0
VERTEX
  8
LAYER2
 10
745.0
 20
505.0
 30
0.0
  0
VERTEX
  8
LAYER2
 10
755.0
 20
505.0
 30
0.0
  0
VERTEX
  8
LAYER2
 10
755.0
 20
590.0
 30
0.0
  0
VERTEX
  8
LAYER2
 10
745.0
 20
590.0
 30
0.0
  0
VERTEX
  8
LAYER2
 10
745.0
 20
505.0
 30
0.0
  0
SEQEND
  8
LAYER2
  0
POLYLINE
  8
LAYER4
 66
1
 70
0
 40
0.0
 41
0.0
  0
VERTEX
  8
LAYER4
 10
0.0
 20
750.0
 30
0.0
  0
VERTEX
  8
LAYER4
 10
875.0
 20
750.0
 30
0.0
  0
VERTEX
  8
LAYER4
 10
875.0
 20
825.0
 30
0.0
  0
VERTEX
  8
LAYER4
 10
0.0
 20
825.0
 30
0.0
  0
VERTEX
  8
LAYER4
 10
0.0
 20
750.0
 30
0.0
  0
SEQEND
  8
LAYER4
  0
POLYLINE
  8
LAYER2
 66
1
 70
0
 40
0.0
 41
0.0
  0
VERTEX
  8
LAYER2
 10
365.0
 20
580.0
 30
0.0
  0
VERTEX
  8
LAYER2
 10
745.0
 20
580.0
 30
0.0
  0
VERTEX
  8
LAYER2
 10
745.0
 20
590.0
 30
0.0
  0
VERTEX
  8
LAYER2
 10
365.0
 20
590.0
 30
0.0
  0
VERTEX
  8
LAYER2
 10
365.0
 20
580.0
 30
0.0
  0
SEQEND
  8
LAYER2
  0
POLYLINE
  8
LAYER7
 66
1
 70
0
 40
0.0
 41
0.0
  0
VERTEX
  8
LAYER7
 10
0.0
 20
750.0
 30
0.0
  0
VERTEX
  8
LAYER7
 10
875.0
 20
750.0
 30
0.0
  0
VERTEX
  8
LAYER7
 10
875.0
 20
825.0
 30
0.0
  0
VERTEX
  8
LAYER7
 10
0.0
 20
825.0
 30
0.0
  0
VERTEX
  8
LAYER7
 10
0.0
 20
750.0
 30
0.0
  0
SEQEND
  8
LAYER7
  0
POLYLINE
  8
LAYER2
 66
1
 70
0
 40
0.0
 41
0.0
  0
VERTEX
  8
LAYER2
 10
115.0
 20
475.0
 30
0.0
  0
VERTEX
  8
LAYER2
 10
125.0
 20
475.0
 30
0.0
  0
VERTEX
  8
LAYER2
 10
125.0
 20
580.0
 30
0.0
  0
VERTEX
  8
LAYER2
 10
115.0
 20
580.0
 30
0.0
  0
VERTEX
  8
LAYER2
 10
115.0
 20
475.0
 30
0.0
  0
SEQEND
  8
LAYER2
  0
POLYLINE
  8
LAYER1
 66
1
 70
0
 40
0.0
 41
0.0
  0
VERTEX
  8
LAYER1
 10
135.0
 20
485.0
 30
0.0
  0
VERTEX
  8
LAYER1
 10
215.0
 20
485.0
 30
0.0
  0
VERTEX
  8
LAYER1
 10
215.0
 20
570.0
 30
0.0
  0
VERTEX
  8
LAYER1
 10
135.0
 20
570.0
 30
0.0
  0
VERTEX
  8
LAYER1
 10
135.0
 20
485.0
 30
0.0
  0
SEQEND
  8
LAYER1
  0
POLYLINE
  8
LAYER2
 66
1
 70
0
 40
0.0
 41
0.0
  0
VERTEX
  8
LAYER2
 10
115.0
 20
580.0
 30
0.0
  0
VERTEX
  8
LAYER2
 10
225.0
 20
580.0
 30
0.0
  0
VERTEX
  8
LAYER2
 10
225.0
 20
590.0
 30
0.0
  0
VERTEX
  8
LAYER2
 10
115.0
 20
590.0
 30
0.0
  0
VERTEX
  8
LAYER2
 10
115.0
 20
580.0
 30
0.0
  0
SEQEND
  8
LAYER2
  0
POLYLINE
  8
LAYER8
 66
1
 70
0
 40
0.0
 41
0.0
  0
VERTEX
  8
LAYER8
 10
375.0
 20
625.0
 30
0.0
  0
VERTEX
  8
LAYER8
 10
475.0
 20
625.0
 30
0.0
  0
VERTEX
  8
LAYER8
 10
475.0
 20
725.0
 30
0.0
  0
VERTEX
  8
LAYER8
 10
375.0
 20
725.0
 30
0.0
  0
VERTEX
  8
LAYER8
 10
375.0
 20
625.0
 30
0.0
  0
SEQEND
  8
LAYER8
  0
POLYLINE
  8
LAYER8
 66
1
 70
0
 40
0.0
 41
0.0
  0
VERTEX
  8
LAYER8
 10
125.0
 20
625.0
 30
0.0
  0
VERTEX
  8
LAYER8
 10
225.0
 20
625.0
 30
0.0
  0
VERTEX
  8
LAYER8
 10
225.0
 20
725.0
 30
0.0
  0
VERTEX
  8
LAYER8
 10
125.0
 20
725.0
 30
0.0
  0
VERTEX
  8
LAYER8
 10
125.0
 20
625.0
 30
0.0
  0
SEQEND
  8
LAYER8
  0
POLYLINE
  8
LAYER8
 66
1
 70
0
 40
0.0
 41
0.0
  0
VERTEX
  8
LAYER8
 10
625.0
 20
625.0
 30
0.0
  0
VERTEX
  8
LAYER8
 10
725.0
 20
625.0
 30
0.0
  0
VERTEX
  8
LAYER8
 10
725.0
 20
725.0
 30
0.0
  0
VERTEX
  8
LAYER8
 10
625.0
 20
725.0
 30
0.0
  0
VERTEX
  8
LAYER8
 10
625.0
 20
625.0
 30
0.0
  0
SEQEND
  8
LAYER8
  0
TEXT
  8
LAYER60
 10
155.0
 20
140.0
 30
0.0
 40
15.0
  1
0
 50
0.0
  0
TEXT
  8
LAYER60
 10
405.0
 20
135.0
 30
0.0
 40
15.0
  1
OUT
 50
0.0
  0
POLYLINE
  8
LAYER4
 66
1
 70
0
 40
0.0
 41
0.0
  0
VERTEX
  8
LAYER4
 10
256.5
 20
161.0
 30
0.0
  0
VERTEX
  8
LAYER4
 10
254.5
 20
161.0
 30
0.0
  0
VERTEX
  8
LAYER4
 10
254.5
 20
165.0
 30
0.0
  0
VERTEX
  8
LAYER4
 10
262.5
 20
165.0
 30
0.0
  0
VERTEX
  8
LAYER4
 10
262.5
 20
161.0
 30
0.0
  0
VERTEX
  8
LAYER4
 10
260.5
 20
161.0
 30
0.0
  0
VERTEX
  8
LAYER4
 10
260.5
 20
139.0
 30
0.0
  0
VERTEX
  8
LAYER4
 10
266.0
 20
139.0
 30
0.0
  0
VERTEX
  8
LAYER4
 10
269.0
 20
141.0
 30
0.0
  0
VERTEX
  8
LAYER4
 10
272.5
 20
141.0
 30
0.0
  0
VERTEX
  8
LAYER4
 10
272.5
 20
135.0
 30
0.0
  0
VERTEX
  8
LAYER4
 10
254.5
 20
135.0
 30
0.0
  0
VERTEX
  8
LAYER4
 10
254.5
 20
139.0
 30
0.0
  0
VERTEX
  8
LAYER4
 10
256.5
 20
139.0
 30
0.0
  0
VERTEX
  8
LAYER4
 10
256.5
 20
161.0
 30
0.0
  0
SEQEND
  8
LAYER4
  0
POLYLINE
  8
LAYER4
 66
1
 70
0
 40
0.0
 41
0.0
  0
VERTEX
  8
LAYER4
 10
277.5
 20
135.0
 30
0.0
  0
VERTEX
  8
LAYER4
 10
285.5
 20
135.0
 30
0.0
  0
VERTEX
  8
LAYER4
 10
285.5
 20
140.0
 30
0.0
  0
VERTEX
  8
LAYER4
 10
283.5
 20
140.0
 30
0.0
  0
VERTEX
  8
LAYER4
 10
283.5
 20
148.5
 30
0.0
  0
VERTEX
  8
LAYER4
 10
287.5
 20
158.0
 30
0.0
  0
VERTEX
  8
LAYER4
 10
288.5
 20
158.0
 30
0.0
  0
VERTEX
  8
LAYER4
 10
293.5
 20
148.5
 30
0.0
  0
VERTEX
  8
LAYER4
 10
293.5
 20
147.0
 30
0.0
  0
VERTEX
  8
LAYER4
 10
283.5
 20
147.0
 30
0.0
  0
VERTEX
  8
LAYER4
 10
283.5
 20
142.0
 30
0.0
  0
VERTEX
  8
LAYER4
 10
293.5
 20
142.0
 30
0.0
  0
VERTEX
  8
LAYER4
 10
293.5
 20
140.0
 30
0.0
  0
VERTEX
  8
LAYER4
 10
291.5
 20
140.0
 30
0.0
  0
VERTEX
  8
LAYER4
 10
291.5
 20
135.0
 30
0.0
  0
VERTEX
  8
LAYER4
 10
299.5
 20
135.0
 30
0.0
  0
VERTEX
  8
LAYER4
 10
299.5
 20
140.0
 30
0.0
  0
VERTEX
  8
LAYER4
 10
297.5
 20
140.0
 30
0.0
  0
VERTEX
  8
LAYER4
 10
297.5
 20
148.5
 30
0.0
  0
VERTEX
  8
LAYER4
 10
290.5
 20
165.0
 30
0.0
  0
VERTEX
  8
LAYER4
 10
286.5
 20
165.0
 30
0.0
  0
VERTEX
  8
LAYER4
 10
279.5
 20
148.5
 30
0.0
  0
VERTEX
  8
LAYER4
 10
279.5
 20
140.0
 30
0.0
  0
VERTEX
  8
LAYER4
 10
277.5
 20
140.0
 30
0.0
  0
VERTEX
  8
LAYER4
 10
277.5
 20
135.0
 30
0.0
  0
SEQEND
  8
LAYER4
  0
POLYLINE
  8
LAYER4
 66
1
 70
0
 40
0.0
 41
0.0
  0
VERTEX
  8
LAYER4
 10
307.0
 20
135.0
 30
0.0
  0
VERTEX
  8
LAYER4
 10
319.0
 20
135.0
 30
0.0
  0
VERTEX
  8
LAYER4
 10
324.5
 20
140.5
 30
0.0
  0
VERTEX
  8
LAYER4
 10
324.5
 20
145.5
 30
0.0
  0
VERTEX
  8
LAYER4
 10
319.5
 20
151.0
 30
0.0
  0
VERTEX
  8
LAYER4
 10
312.5
 20
153.0
 30
0.0
  0
VERTEX
  8
LAYER4
 10
310.5
 20
155.5
 30
0.0
  0
VERTEX
  8
LAYER4
 10
310.5
 20
159.5
 30
0.0
  0
VERTEX
  8
LAYER4
 10
312.0
 20
161.0
 30
0.0
  0
VERTEX
  8
LAYER4
 10
316.0
 20
161.0
 30
0.0
  0
VERTEX
  8
LAYER4
 10
318.0
 20
158.0
 30
0.0
  0
VERTEX
  8
LAYER4
 10
321.5
 20
158.0
 30
0.0
  0
VERTEX
  8
LAYER4
 10
321.5
 20
161.5
 30
0.0
  0
VERTEX
  8
LAYER4
 10
319.5
 20
165.0
 30
0.0
  0
VERTEX
  8
LAYER4
 10
309.0
 20
165.0
 30
0.0
  0
VERTEX
  8
LAYER4
 10
303.5
 20
159.5
 30
0.0
  0
VERTEX
  8
LAYER4
 10
303.5
 20
154.5
 30
0.0
  0
VERTEX
  8
LAYER4
 10
309.0
 20
149.0
 30
0.0
  0
VERTEX
  8
LAYER4
 10
316.0
 20
147.0
 30
0.0
  0
VERTEX
  8
LAYER4
 10
317.5
 20
145.5
 30
0.0
  0
VERTEX
  8
LAYER4
 10
317.5
 20
141.5
 30
0.0
  0
VERTEX
  8
LAYER4
 10
316.0
 20
140.0
 30
0.0
  0
VERTEX
  8
LAYER4
 10
310.0
 20
140.0
 30
0.0
  0
VERTEX
  8
LAYER4
 10
307.0
 20
142.0
 30
0.0
  0
VERTEX
  8
LAYER4
 10
303.5
 20
142.0
 30
0.0
  0
VERTEX
  8
LAYER4
 10
303.5
 20
138.5
 30
0.0
  0
VERTEX
  8
LAYER4
 10
307.0
 20
135.0
 30
0.0
  0
SEQEND
  8
LAYER4
  0
POLYLINE
  8
LAYER4
 66
1
 70
0
 40
0.0
 41
0.0
  0
VERTEX
  8
LAYER4
 10
330.5
 20
165.0
 30
0.0
  0
VERTEX
  8
LAYER4
 10
330.5
 20
161.0
 30
0.0
  0
VERTEX
  8
LAYER4
 10
332.5
 20
161.0
 30
0.0
  0
VERTEX
  8
LAYER4
 10
332.5
 20
140.0
 30
0.0
  0
VERTEX
  8
LAYER4
 10
330.5
 20
140.0
 30
0.0
  0
VERTEX
  8
LAYER4
 10
330.5
 20
135.0
 30
0.0
  0
VERTEX
  8
LAYER4
 10
338.5
 20
135.0
 30
0.0
  0
VERTEX
  8
LAYER4
 10
338.5
 20
140.0
 30
0.0
  0
VERTEX
  8
LAYER4
 10
336.5
 20
140.0
 30
0.0
  0
VERTEX
  8
LAYER4
 10
336.5
 20
161.0
 30
0.0
  0
VERTEX
  8
LAYER4
 10
338.5
 20
161.0
 30
0.0
  0
VERTEX
  8
LAYER4
 10
338.5
 20
165.0
 30
0.0
  0
VERTEX
  8
LAYER4
 10
330.5
 20
165.0
 30
0.0
  0
SEQEND
  8
LAYER4
  0
POLYLINE
  8
LAYER4
 66
1
 70
0
 40
0.0
 41
0.0
  0
VERTEX
  8
LAYER4
 10
491.5
 20
149.0
 30
0.0
  0
VERTEX
  8
LAYER4
 10
491.5
 20
158.5
 30
0.0
  0
VERTEX
  8
LAYER4
 10
497.0
 20
164.0
 30
0.0
  0
VERTEX
  8
LAYER4
 10
506.0
 20
164.0
 30
0.0
  0
VERTEX
  8
LAYER4
 10
511.5
 20
158.5
 30
0.0
  0
VERTEX
  8
LAYER4
 10
511.5
 20
140.5
 30
0.0
  0
VERTEX
  8
LAYER4
 10
506.0
 20
135.0
 30
0.0
  0
VERTEX
  8
LAYER4
 10
497.0
 20
135.0
 30
0.0
  0
VERTEX
  8
LAYER4
 10
491.5
 20
140.5
 30
0.0
  0
VERTEX
  8
LAYER4
 10
491.5
 20
149.0
 30
0.0
  0
VERTEX
  8
LAYER4
 10
495.5
 20
149.0
 30
0.0
  0
VERTEX
  8
LAYER4
 10
495.5
 20
142.5
 30
0.0
  0
VERTEX
  8
LAYER4
 10
499.0
 20
139.0
 30
0.0
  0
VERTEX
  8
LAYER4
 10
504.0
 20
139.0
 30
0.0
  0
VERTEX
  8
LAYER4
 10
507.5
 20
142.5
 30
0.0
  0
VERTEX
  8
LAYER4
 10
507.5
 20
156.5
 30
0.0
  0
VERTEX
  8
LAYER4
 10
504.0
 20
160.0
 30
0.0
  0
VERTEX
  8
LAYER4
 10
499.0
 20
160.0
 30
0.0
  0
VERTEX
  8
LAYER4
 10
495.5
 20
156.5
 30
0.0
  0
VERTEX
  8
LAYER4
 10
495.5
 20
149.0
 30
0.0
  0
VERTEX
  8
LAYER4
 10
491.5
 20
149.0
 30
0.0
  0
SEQEND
  8
LAYER4
  0
POLYLINE
  8
LAYER4
 66
1
 70
0
 40
0.0
 41
0.0
  0
VERTEX
  8
LAYER4
 10
515.5
 20
135.0
 30
0.0
  0
VERTEX
  8
LAYER4
 10
515.5
 20
139.0
 30
0.0
  0
VERTEX
  8
LAYER4
 10
517.5
 20
139.0
 30
0.0
  0
VERTEX
  8
LAYER4
 10
517.5
 20
150.0
 30
0.0
  0
VERTEX
  8
LAYER4
 10
527.0
 20
150.0
 30
0.0
  0
VERTEX
  8
LAYER4
 10
531.5
 20
154.5
 30
0.0
  0
VERTEX
  8
LAYER4
 10
531.5
 20
156.5
 30
0.0
  0
VERTEX
  8
LAYER4
 10
527.0
 20
160.0
 30
0.0
  0
VERTEX
  8
LAYER4
 10
521.5
 20
160.0
 30
0.0
  0
VERTEX
  8
LAYER4
 10
521.5
 20
150.0
 30
0.0
  0
VERTEX
  8
LAYER4
 10
517.5
 20
150.0
 30
0.0
  0
VERTEX
  8
LAYER4
 10
517.5
 20
160.0
 30
0.0
  0
VERTEX
  8
LAYER4
 10
515.5
 20
160.0
 30
0.0
  0
VERTEX
  8
LAYER4
 10
515.5
 20
164.0
 30
0.0
  0
VERTEX
  8
LAYER4
 10
530.0
 20
164.0
 30
0.0
  0
VERTEX
  8
LAYER4
 10
535.5
 20
158.5
 30
0.0
  0
VERTEX
  8
LAYER4
 10
535.5
 20
151.5
 30
0.0
  0
VERTEX
  8
LAYER4
 10
530.0
 20
146.0
 30
0.0
  0
VERTEX
  8
LAYER4
 10
521.5
 20
146.0
 30
0.0
  0
VERTEX
  8
LAYER4
 10
521.5
 20
139.0
 30
0.0
  0
VERTEX
  8
LAYER4
 10
523.5
 20
139.0
 30
0.0
  0
VERTEX
  8
LAYER4
 10
523.5
 20
135.0
 30
0.0
  0
VERTEX
  8
LAYER4
 10
515.5
 20
135.0
 30
0.0
  0
SEQEND
  8
LAYER4
  0
POLYLINE
  8
LAYER4
 66
1
 70
0
 40
0.0
 41
0.0
  0
VERTEX
  8
LAYER4
 10
538.5
 20
135.0
 30
0.0
  0
VERTEX
  8
LAYER4
 10
546.5
 20
135.0
 30
0.0
  0
VERTEX
  8
LAYER4
 10
546.5
 20
139.0
 30
0.0
  0
VERTEX
  8
LAYER4
 10
544.5
 20
139.0
 30
0.0
  0
VERTEX
  8
LAYER4
 10
544.5
 20
147.5
 30
0.0
  0
VERTEX
  8
LAYER4
 10
549.5
 20
158.0
 30
0.0
  0
VERTEX
  8
LAYER4
 10
554.5
 20
147.5
 30
0.0
  0
VERTEX
  8
LAYER4
 10
554.5
 20
146.0
 30
0.0
  0
VERTEX
  8
LAYER4
 10
544.5
 20
146.0
 30
0.0
  0
VERTEX
  8
LAYER4
 10
544.5
 20
142.0
 30
0.0
  0
VERTEX
  8
LAYER4
 10
554.5
 20
142.0
 30
0.0
  0
VERTEX
  8
LAYER4
 10
554.5
 20
139.0
 30
0.0
  0
VERTEX
  8
LAYER4
 10
552.5
 20
139.0
 30
0.0
  0
VERTEX
  8
LAYER4
 10
552.5
 20
135.0
 30
0.0
  0
VERTEX
  8
LAYER4
 10
560.5
 20
135.0
 30
0.0
  0
VERTEX
  8
LAYER4
 10
560.5
 20
139.0
 30
0.0
  0
VERTEX
  8
LAYER4
 10
558.5
 20
139.0
 30
0.0
  0
VERTEX
  8
LAYER4
 10
558.5
 20
147.5
 30
0.0
  0
VERTEX
  8
LAYER4
 10
551.5
 20
164.0
 30
0.0
  0
VERTEX
  8
LAYER4
 10
547.5
 20
164.0
 30
0.0
  0
VERTEX
  8
LAYER4
 10
540.5
 20
147.5
 30
0.0
  0
VERTEX
  8
LAYER4
 10
540.5
 20
139.0
 30
0.0
  0
VERTEX
  8
LAYER4
 10
538.5
 20
139.0
 30
0.0
  0
VERTEX
  8
LAYER4
 10
538.5
 20
135.0
 30
0.0
  0
SEQEND
  8
LAYER4
  0
POLYLINE
  8
LAYER4
 66
1
 70
0
 40
0.0
 41
0.0
  0
VERTEX
  8
LAYER4
 10
563.5
 20
135.0
 30
0.0
  0
VERTEX
  8
LAYER4
 10
571.5
 20
135.0
 30
0.0
  0
VERTEX
  8
LAYER4
 10
571.5
 20
139.0
 30
0.0
  0
VERTEX
  8
LAYER4
 10
569.5
 20
139.0
 30
0.0
  0
VERTEX
  8
LAYER4
 10
569.5
 20
158.0
 30
0.0
  0
VERTEX
  8
LAYER4
 10
576.0
 20
151.0
 30
0.0
  0
VERTEX
  8
LAYER4
 10
582.5
 20
158.0
 30
0.0
  0
VERTEX
  8
LAYER4
 10
582.5
 20
139.0
 30
0.0
  0
VERTEX
  8
LAYER4
 10
580.5
 20
139.0
 30
0.0
  0
VERTEX
  8
LAYER4
 10
580.5
 20
135.0
 30
0.0
  0
VERTEX
  8
LAYER4
 10
588.5
 20
135.0
 30
0.0
  0
VERTEX
  8
LAYER4
 10
588.5
 20
139.0
 30
0.0
  0
VERTEX
  8
LAYER4
 10
586.5
 20
139.0
 30
0.0
  0
VERTEX
  8
LAYER4
 10
586.5
 20
160.0
 30
0.0
  0
VERTEX
  8
LAYER4
 10
588.5
 20
160.0
 30
0.0
  0
VERTEX
  8
LAYER4
 10
588.5
 20
164.0
 30
0.0
  0
VERTEX
  8
LAYER4
 10
583.0
 20
164.0
 30
0.0
  0
VERTEX
  8
LAYER4
 10
576.0
 20
157.0
 30
0.0
  0
VERTEX
  8
LAYER4
 10
569.0
 20
164.0
 30
0.0
  0
VERTEX
  8
LAYER4
 10
563.5
 20
164.0
 30
0.0
  0
VERTEX
  8
LAYER4
 10
563.5
 20
160.0
 30
0.0
  0
VERTEX
  8
LAYER4
 10
565.5
 20
160.0
 30
0.0
  0
VERTEX
  8
LAYER4
 10
565.5
 20
139.0
 30
0.0
  0
VERTEX
  8
LAYER4
 10
563.5
 20
139.0
 30
0.0
  0
VERTEX
  8
LAYER4
 10
563.5
 20
135.0
 30
0.0
  0
SEQEND
  8
LAYER4
  0
POLYLINE
  8
LAYER4
 66
1
 70
0
 40
0.0
 41
0.0
  0
VERTEX
  8
LAYER4
 10
592.5
 20
135.0
 30
0.0
  0
VERTEX
  8
LAYER4
 10
592.5
 20
139.0
 30
0.0
  0
VERTEX
  8
LAYER4
 10
594.5
 20
139.0
 30
0.0
  0
VERTEX
  8
LAYER4
 10
594.5
 20
150.0
 30
0.0
  0
VERTEX
  8
LAYER4
 10
604.0
 20
150.0
 30
0.0
  0
VERTEX
  8
LAYER4
 10
607.5
 20
154.5
 30
0.0
  0
VERTEX
  8
LAYER4
 10
607.5
 20
156.5
 30
0.0
  0
VERTEX
  8
LAYER4
 10
604.0
 20
160.0
 30
0.0
  0
VERTEX
  8
LAYER4
 10
598.5
 20
160.0
 30
0.0
  0
VERTEX
  8
LAYER4
 10
598.5
 20
150.0
 30
0.0
  0
VERTEX
  8
LAYER4
 10
594.5
 20
150.0
 30
0.0
  0
VERTEX
  8
LAYER4
 10
594.5
 20
160.0
 30
0.0
  0
VERTEX
  8
LAYER4
 10
591.5
 20
160.0
 30
0.0
  0
VERTEX
  8
LAYER4
 10
591.5
 20
164.0
 30
0.0
  0
VERTEX
  8
LAYER4
 10
607.0
 20
164.0
 30
0.0
  0
VERTEX
  8
LAYER4
 10
612.5
 20
158.5
 30
0.0
  0
VERTEX
  8
LAYER4
 10
612.5
 20
151.5
 30
0.0
  0
VERTEX
  8
LAYER4
 10
607.0
 20
146.0
 30
0.0
  0
VERTEX
  8
LAYER4
 10
598.5
 20
146.0
 30
0.0
  0
VERTEX
  8
LAYER4
 10
598.5
 20
139.0
 30
0.0
  0
VERTEX
  8
LAYER4
 10
600.5
 20
139.0
 30
0.0
  0
VERTEX
  8
LAYER4
 10
600.5
 20
135.0
 30
0.0
  0
VERTEX
  8
LAYER4
 10
592.5
 20
135.0
 30
0.0
  0
SEQEND
  8
LAYER4
  0
TEXT
  8
LAYER60
 10
660.0
 20
135.0
 30
0.0
 40
15.0
  1
VCC
 50
0.0
  0
TEXT
  8
LAYER62
 10
130.0
 20
260.0
 30
0.0
 40
9.75
  1
Q1
 50
0.0
  0
TEXT
  8
LAYER62
 10
210.0
 20
260.0
 30
0.0
 40
9.75
  1
Q2
 50
0.0
  0
TEXT
  8
LAYER63
 10
175.0
 20
260.0
 30
0.0
 40
3.0
  1
NPN1
 50
0.0
  0
TEXT
  8
LAYER62
 10
130.0
 20
365.0
 30
0.0
 40
9.75
  1
Q4
 50
0.0
  0
TEXT
  8
LAYER62
 10
210.0
 20
365.0
 30
0.0
 40
9.75
  1
Q5
 50
0.0
  0
TEXT
  8
LAYER63
 10
170.0
 20
365.0
 30
0.0
 40
3.0
  1
PNP1
 50
0.0
  0
POLYLINE
  8
LAYER8
 66
1
 70
0
 40
10.0
 41
10.0
  0
VERTEX
  8
LAYER8
 10
160.0
 20
378.0
 30
0.0
  0
VERTEX
  8
LAYER8
 10
160.0
 20
310.0
 30
0.0
  0
VERTEX
  8
LAYER8
 10
247.0
 20
310.0
 30
0.0
  0
SEQEND
  8
LAYER8
  0
TEXT
  8
LAYER62
 10
295.0
 20
260.0
 30
0.0
 40
9.75
  1
Q3
 50
0.0
  0
TEXT
  8
LAYER63
 10
220.0
 20
260.0
 30
0.0
 40
3.0
  1
NPN1
 50
0.0
  0
TEXT
  8
LAYER63
 10
305.0
 20
260.0
 30
0.0
 40
3.0
  1
NPN1
 50
0.0
  0
TEXT
  8
LAYER63
 10
385.0
 20
260.0
 30
0.0
 40
3.0
  1
NPN1
 50
0.0
  0
TEXT
  8
LAYER63
 10
250.0
 20
365.0
 30
0.0
 40
3.0
  1
PNP1
 50
0.0
  0
TEXT
  8
LAYER62
 10
370.0
 20
260.0
 30
0.0
 40
9.75
  1
Q10
 50
0.0
  0
POLYLINE
  8
LAYER8
 66
1
 70
0
 40
10.0
 41
10.0
  0
VERTEX
  8
LAYER8
 10
240.0
 20
380.0
 30
0.0
  0
VERTEX
  8
LAYER8
 10
240.0
 20
335.0
 30
0.0
  0
VERTEX
  8
LAYER8
 10
275.0
 20
335.0
 30
0.0
  0
VERTEX
  8
LAYER8
 10
275.0
 20
310.0
 30
0.0
  0
VERTEX
  8
LAYER8
 10
327.0
 20
310.0
 30
0.0
  0
SEQEND
  8
LAYER8
  0
POLYLINE
  8
LAYER8
 66
1
 70
0
 40
10.0
 41
10.0
  0
VERTEX
  8
LAYER8
 10
317.0
 20
405.0
 30
0.0
  0
VERTEX
  8
LAYER8
 10
395.0
 20
405.0
 30
0.0
  0
VERTEX
  8
LAYER8
 10
415.0
 20
425.0
 30
0.0
  0
VERTEX
  8
LAYER8
 10
415.0
 20
465.0
 30
0.0
  0
VERTEX
  8
LAYER8
 10
485.0
 20
535.0
 30
0.0
  0
VERTEX
  8
LAYER8
 10
580.0
 20
535.0
 30
0.0
  0
VERTEX
  8
LAYER8
 10
580.0
 20
450.0
 30
0.0
  0
SEQEND
  8
LAYER8
  0
TEXT
  8
LAYER63
 10
555.0
 20
375.0
 30
0.0
 40
3.0
  1
NPN1
 50
0.0
  0
TEXT
  8
LAYER63
 10
460.0
 20
400.0
 30
0.0
 40
3.0
  1
75K
 50
0.0
  0
TEXT
  8
LAYER63
 10
635.0
 20
405.0
 30
0.0
 40
3.0
  1
NPN2
 50
0.0
  0
TEXT
  8
LAYER62
 10
450.0
 20
260.0
 30
0.0
 40
9.75
  1
Q11
 50
0.0
  0
TEXT
  8
LAYER62
 10
540.0
 20
375.0
 30
0.0
 40
9.75
  1
Q12
 50
0.0
  0
TEXT
  8
LAYER62
 10
620.0
 20
270.0
 30
0.0
 40
9.75
  1
Q13
 50
0.0
  0
TEXT
  8
LAYER62
 10
620.0
 20
405.0
 30
0.0
 40
9.75
  1
Q14
 50
0.0
  0
POLYLINE
  8
LAYER8
 66
1
 70
0
 40
16.0
 41
16.0
  0
VERTEX
  8
LAYER8
 10
595.0
 20
355.0
 30
0.0
  0
VERTEX
  8
LAYER8
 10
595.0
 20
255.0
 30
0.0
  0
VERTEX
  8
LAYER8
 10
720.0
 20
255.0
 30
0.0
  0
SEQEND
  8
LAYER8
  0
POLYLINE
  8
LAYER7
 66
1
 70
0
 40
10.0
 41
10.0
  0
VERTEX
  8
LAYER7
 10
595.0
 20
350.0
 30
0.0
  0
VERTEX
  8
LAYER7
 10
595.0
 20
255.0
 30
0.0
  0
VERTEX
  8
LAYER7
 10
715.0
 20
255.0
 30
0.0
  0
SEQEND
  8
LAYER7
  0
POLYLINE
  8
LAYER8
 66
1
 70
0
 40
20.0
 41
20.0
  0
VERTEX
  8
LAYER8
 10
587.0
 20
275.0
 30
0.0
  0
VERTEX
  8
LAYER8
 10
160.0
 20
275.0
 30
0.0
  0
VERTEX
  8
LAYER8
 10
160.0
 20
200.0
 30
0.0
  0
SEQEND
  8
LAYER8
  0
POLYLINE
  8
LAYER8
 66
1
 70
0
 40
10.0
 41
10.0
  0
VERTEX
  8
LAYER8
 10
620.0
 20
360.0
 30
0.0
  0
VERTEX
  8
LAYER8
 10
620.0
 20
395.0
 30
0.0
  0
VERTEX
  8
LAYER8
 10
485.0
 20
395.0
 30
0.0
  0
VERTEX
  8
LAYER8
 10
485.0
 20
332.0
 30
0.0
  0
SEQEND
  8
LAYER8
  0
POLYLINE
  8
LAYER2
 66
1
 70
0
 40
0.0
 41
0.0
  0
VERTEX
  8
LAYER2
 10
585.0
 20
360.0
 30
0.0
  0
VERTEX
  8
LAYER2
 10
605.0
 20
360.0
 30
0.0
  0
VERTEX
  8
LAYER2
 10
605.0
 20
255.0
 30
0.0
  0
VERTEX
  8
LAYER2
 10
755.0
 20
255.0
 30
0.0
  0
VERTEX
  8
LAYER2
 10
755.0
 20
245.0
 30
0.0
  0
VERTEX
  8
LAYER2
 10
585.0
 20
245.0
 30
0.0
  0
VERTEX
  8
LAYER2
 10
585.0
 20
360.0
 30
0.0
  0
SEQEND
  8
LAYER2
  0
TEXT
  8
LAYER62
 10
450.0
 20
400.0
 30
0.0
 40
9.75
  1
R3
 50
0.0
  0
TEXT
  8
LAYER63
 10
465.0
 20
260.0
 30
0.0
 40
3.0
  1
NPN2
 50
0.0
  0
TEXT
  8
LAYER60
 10
675.0
 20
385.0
 30
0.0
 40
9.75
  1
0
 50
0.0
  0
POLYLINE
  8
LAYER8
 66
1
 70
0
 40
10.0
 41
10.0
  0
VERTEX
  8
LAYER8
 10
740.0
 20
300.0
 30
0.0
  0
VERTEX
  8
LAYER8
 10
740.0
 20
230.0
 30
0.0
  0
VERTEX
  8
LAYER8
 10
505.0
 20
230.0
 30
0.0
  0
VERTEX
  8
LAYER8
 10
469.0
 20
194.0
 30
0.0
  0
SEQEND
  8
LAYER8
  0
TEXT
  8
LAYER63
 10
190.0
 20
505.0
 30
0.0
 40
3.0
  1
200
 50
0.0
  0
POLYLINE
  8
LAYER8
 66
1
 70
0
 40
10.0
 41
10.0
  0
VERTEX
  8
LAYER8
 10
150.0
 20
491.0
 30
0.0
  0
VERTEX
  8
LAYER8
 10
150.0
 20
443.0
 30
0.0
  0
SEQEND
  8
LAYER8
  0
POLYLINE
  8
LAYER8
 66
1
 70
0
 40
10.0
 41
10.0
  0
VERTEX
  8
LAYER8
 10
150.0
 20
539.0
 30
0.0
  0
VERTEX
  8
LAYER8
 10
150.0
 20
625.0
 30
0.0
  0
SEQEND
  8
LAYER8
  0
TEXT
  8
LAYER62
 10
190.0
 20
520.0
 30
0.0
 40
9.75
  1
R5
 50
0.0
  0
TEXT
  8
LAYER63
 10
145.0
 20
510.0
 30
0.0
 40
3.0
  1
200
 50
0.0
  0
POLYLINE
  8
LAYER8
 66
1
 70
0
 40
10.0
 41
10.0
  0
VERTEX
  8
LAYER8
 10
172.0
 20
415.0
 30
0.0
  0
VERTEX
  8
LAYER8
 10
229.0
 20
415.0
 30
0.0
  0
SEQEND
  8
LAYER8
  0
POLYLINE
  8
LAYER8
 66
1
 70
0
 40
10.0
 41
10.0
  0
VERTEX
  8
LAYER8
 10
195.0
 20
491.0
 30
0.0
  0
VERTEX
  8
LAYER8
 10
195.0
 20
485.0
 30
0.0
  0
VERTEX
  8
LAYER8
 10
235.0
 20
460.0
 30
0.0
  0
VERTEX
  8
LAYER8
 10
235.0
 20
452.0
 30
0.0
  0
SEQEND
  8
LAYER8
  0
TEXT
  8
LAYER62
 10
145.0
 20
520.0
 30
0.0
 40
9.75
  1
R4
 50
0.0
  0
TEXT
  8
LAYER63
 10
430.0
 20
540.0
 30
0.0
 40
3.0
  1
200K
 50
0.0
  0
TEXT
  8
LAYER62
 10
310.0
 20
435.0
 30
0.0
 40
9.75
  1
Q9
 50
0.0
  0
POLYLINE
  8
LAYER8
 66
1
 70
0
 40
10.0
 41
10.0
  0
VERTEX
  8
LAYER8
 10
235.0
 20
580.0
 30
0.0
  0
VERTEX
  8
LAYER8
 10
235.0
 20
545.0
 30
0.0
  0
VERTEX
  8
LAYER8
 10
250.0
 20
530.0
 30
0.0
  0
VERTEX
  8
LAYER8
 10
258.0
 20
530.0
 30
0.0
  0
SEQEND
  8
LAYER8
  0
POLYLINE
  8
LAYER8
 66
1
 70
0
 40
10.0
 41
10.0
  0
VERTEX
  8
LAYER8
 10
285.0
 20
425.0
 30
0.0
  0
VERTEX
  8
LAYER8
 10
327.0
 20
425.0
 30
0.0
  0
SEQEND
  8
LAYER8
  0
POLYLINE
  8
LAYER8
 66
1
 70
0
 40
10.0
 41
10.0
  0
VERTEX
  8
LAYER8
 10
257.0
 20
497.0
 30
0.0
  0
VERTEX
  8
LAYER8
 10
245.0
 20
497.0
 30
0.0
  0
VERTEX
  8
LAYER8
 10
210.0
 20
515.0
 30
0.0
  0
VERTEX
  8
LAYER8
 10
170.0
 20
515.0
 30
0.0
  0
VERTEX
  8
LAYER8
 10
170.0
 20
480.0
 30
0.0
  0
VERTEX
  8
LAYER8
 10
200.0
 20
455.0
 30
0.0
  0
VERTEX
  8
LAYER8
 10
200.0
 20
420.0
 30
0.0
  0
SEQEND
  8
LAYER8
  0
POLYLINE
  8
LAYER8
 66
1
 70
0
 40
10.0
 41
10.0
  0
VERTEX
  8
LAYER8
 10
280.0
 20
495.0
 30
0.0
  0
VERTEX
  8
LAYER8
 10
280.0
 20
360.0
 30
0.0
  0
VERTEX
  8
LAYER8
 10
320.0
 20
360.0
 30
0.0
  0
VERTEX
  8
LAYER8
 10
320.0
 20
337.0
 30
0.0
  0
SEQEND
  8
LAYER8
  0
POLYLINE
  8
LAYER8
 66
1
 70
0
 40
10.0
 41
10.0
  0
VERTEX
  8
LAYER8
 10
280.0
 20
475.0
 30
0.0
  0
VERTEX
  8
LAYER8
 10
395.0
 20
475.0
 30
0.0
  0
VERTEX
  8
LAYER8
 10
475.0
 20
555.0
 30
0.0
  0
VERTEX
  8
LAYER8
 10
634.0
 20
555.0
 30
0.0
  0
SEQEND
  8
LAYER8
  0
TEXT
  8
LAYER62
 10
420.0
 20
540.0
 30
0.0
 40
9.75
  1
R1
 50
0.0
  0
TEXT
  8
LAYER60
 10
320.0
 20
445.0
 30
0.0
 40
3.0
  1
VCC
 50
0.0
  0
TEXT
  8
LAYER62
 10
240.0
 20
480.0
 30
0.0
 40
9.75
  1
X1
 50
0.0
  0
TEXT
  8
LAYER63
 10
320.0
 20
435.0
 30
0.0
 40
3.0
  1
NPN1
 50
0.0
  0
POLYLINE
  8
LAYER8
 66
1
 70
0
 40
10.0
 41
10.0
  0
VERTEX
  8
LAYER8
 10
258.0
 20
565.0
 30
0.0
  0
VERTEX
  8
LAYER8
 10
365.0
 20
565.0
 30
0.0
  0
VERTEX
  8
LAYER8
 10
365.0
 20
497.0
 30
0.0
  0
VERTEX
  8
LAYER8
 10
331.0
 20
497.0
 30
0.0
  0
SEQEND
  8
LAYER8
  0
POLYLINE
  8
LAYER8
 66
1
 70
0
 40
10.0
 41
10.0
  0
VERTEX
  8
LAYER8
 10
402.0
 20
550.0
 30
0.0
  0
VERTEX
  8
LAYER8
 10
370.0
 20
550.0
 30
0.0
  0
SEQEND
  8
LAYER8
  0
TEXT
  8
LAYER63
 10
250.0
 20
480.0
 30
0.0
 40
3.0
  1
PSRC1
 50
0.0
  0
TEXT
  8
LAYER62
 10
640.0
 20
550.0
 30
0.0
 40
9.75
  1
R6
 50
0.0
  0
POLYLINE
  8
LAYER8
 66
1
 70
0
 40
10.0
 41
10.0
  0
VERTEX
  8
LAYER8
 10
485.0
 20
435.0
 30
0.0
  0
VERTEX
  8
LAYER8
 10
485.0
 20
415.0
 30
0.0
  0
SEQEND
  8
LAYER8
  0
POLYLINE
  8
LAYER8
 66
1
 70
0
 40
10.0
 41
10.0
  0
VERTEX
  8
LAYER8
 10
480.0
 20
455.0
 30
0.0
  0
VERTEX
  8
LAYER8
 10
570.0
 20
455.0
 30
0.0
  0
VERTEX
  8
LAYER8
 10
570.0
 20
445.0
 30
0.0
  0
SEQEND
  8
LAYER8
  0
TEXT
  8
LAYER63
 10
460.0
 20
445.0
 30
0.0
 40
3.0
  1
75K
 50
0.0
  0
POLYLINE
  8
LAYER8
 66
1
 70
0
 40
10.0
 41
10.0
  0
VERTEX
  8
LAYER8
 10
645.0
 20
530.0
 30
0.0
  0
VERTEX
  8
LAYER8
 10
608.0
 20
530.0
 30
0.0
  0
SEQEND
  8
LAYER8
  0
POLYLINE
  8
LAYER8
 66
1
 70
0
 40
20.0
 41
20.0
  0
VERTEX
  8
LAYER8
 10
638.0
 20
480.0
 30
0.0
  0
VERTEX
  8
LAYER8
 10
770.0
 20
480.0
 30
0.0
  0
VERTEX
  8
LAYER8
 10
770.0
 20
185.0
 30
0.0
  0
VERTEX
  8
LAYER8
 10
725.0
 20
185.0
 30
0.0
  0
SEQEND
  8
LAYER8
  0
POLYLINE
  8
LAYER8
 66
1
 70
0
 40
10.0
 41
10.0
  0
VERTEX
  8
LAYER8
 10
558.0
 20
510.0
 30
0.0
  0
VERTEX
  8
LAYER8
 10
490.0
 20
510.0
 30
0.0
  0
VERTEX
  8
LAYER8
 10
435.0
 20
455.0
 30
0.0
  0
VERTEX
  8
LAYER8
 10
435.0
 20
415.0
 30
0.0
  0
VERTEX
  8
LAYER8
 10
400.0
 20
380.0
 30
0.0
  0
VERTEX
  8
LAYER8
 10
400.0
 20
310.0
 30
0.0
  0
VERTEX
  8
LAYER8
 10
546.7
 20
310.0
 30
0.0
  0
SEQEND
  8
LAYER8
  0
TEXT
  8
LAYER62
 10
450.0
 20
445.0
 30
0.0
 40
9.75
  1
R2
 50
0.0
  0
POLYLINE
  8
LAYER8
 66
1
 70
0
 40
10.0
 41
10.0
  0
VERTEX
  8
LAYER8
 10
489.0
 20
425.0
 30
0.0
  0
VERTEX
  8
LAYER8
 10
577.0
 20
425.0
 30
0.0
  0
SEQEND
  8
LAYER8
  0
POLYLINE
  8
LAYER8
 66
1
 70
0
 40
10.0
 41
10.0
  0
VERTEX
  8
LAYER8
 10
650.0
 20
480.0
 30
0.0
  0
VERTEX
  8
LAYER8
 10
650.0
 20
585.0
 30
0.0
  0
VERTEX
  8
LAYER8
 10
201.0
 20
585.0
 30
0.0
  0
VERTEX
  8
LAYER8
 10
201.0
 20
562.0
 30
0.0
  0
SEQEND
  8
LAYER8
  0
POLYLINE
  8
LAYER8
 66
1
 70
0
 40
10.0
 41
10.0
  0
VERTEX
  8
LAYER8
 10
643.0
 20
430.0
 30
0.0
  0
VERTEX
  8
LAYER8
 10
740.0
 20
430.0
 30
0.0
  0
VERTEX
  8
LAYER8
 10
740.0
 20
345.0
 30
0.0
  0
SEQEND
  8
LAYER8
  0
POLYLINE
  8
LAYER1
 66
1
 70
0
 40
0.0
 41
0.0
  0
VERTEX
  8
LAYER1
 10
735.0
 20
570.0
 30
0.0
  0
VERTEX
  8
LAYER1
 10
735.0
 20
515.0
 30
0.0
  0
VERTEX
  8
LAYER1
 10
595.0
 20
515.0
 30
0.0
  0
VERTEX
  8
LAYER1
 10
595.0
 20
485.0
 30
0.0
  0
VERTEX
  8
LAYER1
 10
515.0
 20
485.0
 30
0.0
  0
VERTEX
  8
LAYER1
 10
515.0
 20
370.0
 30
0.0
  0
VERTEX
  8
LAYER1
 10
295.0
 20
370.0
 30
0.0
  0
VERTEX
  8
LAYER1
 10
295.0
 20
455.0
 30
0.0
  0
VERTEX
  8
LAYER1
 10
375.0
 20
455.0
 30
0.0
  0
VERTEX
  8
LAYER1
 10
375.0
 20
570.0
 30
0.0
  0
VERTEX
  8
LAYER1
 10
735.0
 20
570.0
 30
0.0
  0
SEQEND
  8
LAYER1
  0
TEXT
  8
LAYER63
 10
660.0
 20
550.0
 30
0.0
 40
3.0
  1
200
 50
0.0
  0
POLYLINE
  8
LAYER8
 66
1
 70
0
 40
10.0
 41
10.0
  0
VERTEX
  8
LAYER8
 10
675.0
 20
548.0
 30
0.0
  0
VERTEX
  8
LAYER8
 10
675.0
 20
625.0
 30
0.0
  0
SEQEND
  8
LAYER8
  0
POLYLINE
  8
LAYER8
 66
1
 70
0
 40
10.0
 41
10.0
  0
VERTEX
  8
LAYER8
 10
653.0
 20
455.0
 30
0.0
  0
VERTEX
  8
LAYER8
 10
585.0
 20
455.0
 30
0.0
  0
SEQEND
  8
LAYER8
  0
TEXT
  8
LAYER60
 10
155.0
 20
660.0
 30
0.0
 40
15.0
  1
IN1
 50
0.0
  0
TEXT
  8
LAYER60
 10
405.0
 20
655.0
 30
0.0
 40
15.0
  1
IN2
 50
0.0
  0
POLYLINE
  8
LAYER8
 66
1
 70
0
 40
10.0
 41
10.0
  0
VERTEX
  8
LAYER8
 10
385.0
 20
635.0
 30
0.0
  0
VERTEX
  8
LAYER8
 10
350.0
 20
605.0
 30
0.0
  0
VERTEX
  8
LAYER8
 10
175.0
 20
605.0
 30
0.0
  0
VERTEX
  8
LAYER8
 10
175.0
 20
535.0
 30
0.0
  0
VERTEX
  8
LAYER8
 10
202.0
 20
535.0
 30
0.0
  0
SEQEND
  8
LAYER8
  0
TEXT
  8
LAYER60
 10
655.0
 20
655.0
 30
0.0
 40
15.0
  1
COMP
 50
0.0
  0
TEXT
  8
LAYER63
 10
635.0
 20
270.0
 30
0.0
 40
3.0
  1
SPNP1
 50
0.0
  0
ENDSEC
  0
EOF
